<?xml version="1.0" standalone="no"?>
<!DOCTYPE svg PUBLIC "-//W3C//DTD SVG 1.1//EN" "http://www.w3.org/Graphics/SVG/1.1/DTD/svg11.dtd" >
<svg xmlns="http://www.w3.org/2000/svg">
<metadata></metadata>
<defs>
<font id="dk_mango_smoothieregular" horiz-adv-x="688" >
<font-face units-per-em="2048" ascent="1638" descent="-410" />
<missing-glyph horiz-adv-x="573" />
<glyph horiz-adv-x="0" />
<glyph horiz-adv-x="682" />
<glyph unicode=" "  horiz-adv-x="573" />
<glyph unicode="&#x09;" horiz-adv-x="573" />
<glyph unicode="&#xa0;" horiz-adv-x="573" />
<glyph unicode="!" horiz-adv-x="237" d="M61 1579q1 20 2 28t5.5 17t14 11.5t26.5 2.5q34 0 34 -30l21 -1323q0 -2 -1 -12.5t-1 -12.5q-5 -12 -33 -12h-33q-12 12 -14 22zM92 41q0 18 14.5 32.5t32.5 14.5q15 0 26 -10.5t11 -22.5q0 -39 -45 -39q-39 0 -39 25z" />
<glyph unicode="&#x22;" horiz-adv-x="370" d="M61 1708q0 9 16.5 15t28.5 6q30 0 35 -21v-27q0 -49 -5 -147.5t-5 -147.5q-3 -18 -11 -24t-28 -6q-24 0 -24 18zM229 1708q0 9 16.5 15t28.5 6q30 0 35 -21v-27q0 -49 -5 -147.5t-5 -147.5q-3 -18 -11 -24t-28 -6q-24 0 -24 18z" />
<glyph unicode="$" horiz-adv-x="591" d="M61 1430v22q0 94 56.5 144.5t148.5 58.5l2 43q6 14 29 14q16 0 22 -14v-41q38 -1 65 -16.5t58 -49.5q28 -33 36.5 -64t8.5 -79q0 -17 -18.5 -28t-34.5 -11q-1 0 -4.5 -1t-5.5 -1q-8 0 -8 6q0 40 -8 88q-5 28 -33.5 63.5t-57.5 41.5q-5 -203 -12 -674l25 -51 q52 -105 75 -154.5t59 -139.5t51 -168t15 -157q0 -100 -67 -182t-170 -82v-27q0 -30 -31 -30h-12l-6 8l-2 51q-24 0 -45 6q-103 44 -119 283q0 47 43 47q9 0 23 -18.5t14 -30.5q0 -79 16 -136.5t68 -91.5l12 791q-76 159 -124 293t-69 287zM141 1450q0 -174 117 -420l8 576 q-58 -9 -85 -43t-40 -105v-8zM293 53h10q70 0 111 65.5t41 147.5q0 110 -38 219.5t-114 264.5q-1 -31 -10 -697z" />
<glyph unicode="'" horiz-adv-x="202" d="M61 1708q0 9 16.5 15t28.5 6q30 0 35 -21v-27q0 -49 -5 -147.5t-5 -147.5q-3 -18 -11 -24t-28 -6q-24 0 -24 18z" />
<glyph unicode="(" horiz-adv-x="512" d="M61 756q0 24 4.5 80t15.5 144.5t28 183t45.5 191.5t63 173t85.5 124t109 48q39 0 39 -25q0 -17 -26 -26.5t-28 -10.5q-79 -70 -133.5 -189.5t-78.5 -259.5t-33 -251.5t-9 -226.5q0 -169 76.5 -348t204.5 -310q0 -1 1 -6.5t1 -7.5q0 -29 -45 -29q-41 0 -70 41 q-130 166 -190 333t-60 372z" />
<glyph unicode=")" horiz-adv-x="512" d="M61 1675q0 25 39 25q58 0 109 -48t85.5 -124t63 -173t45.5 -191.5t28 -183t15.5 -144.5t4.5 -80q0 -205 -60 -372t-190 -333q-29 -41 -70 -41q-45 0 -45 29q0 2 1 7.5t1 6.5q128 131 204.5 310t76.5 348q0 115 -9 226.5t-33 251.5t-78.5 259.5t-133.5 189.5 q-2 1 -28 10.5t-26 26.5z" />
<glyph unicode="," horiz-adv-x="210" d="M61 158q0 30 64 30q21 0 25 -22v-100q0 -14 -2.5 -56t-6 -90t-4.5 -57q-2 -5 -8 -23.5t-11 -29.5t-16.5 -21t-27.5 -10v315q0 11 -6.5 31.5t-6.5 32.5z" />
<glyph unicode="-" horiz-adv-x="737" d="M61 823q0 21 11.5 28t36.5 7h26q369 0 500 -8q17 -3 29 -17.5t12 -27.5q0 -10 -8.5 -17.5t-22.5 -7.5q-12 0 -18 2q-102 0 -232.5 -1t-161.5 -1q-104 0 -138 8t-34 35z" />
<glyph unicode="." horiz-adv-x="237" d="M61 47q0 32 23.5 47t50.5 15q16 0 28.5 -16t12.5 -38q0 -25 -15.5 -40t-35.5 -15q-14 0 -22 1t-19.5 5t-17 14t-5.5 27z" />
<glyph unicode="/" horiz-adv-x="565" d="M61 16l353 1588q0 1 1 4t1 4q5 16 9 23.5t14 13.5t28 6q37 0 37 -25v-4l-359 -1589q-6 -33 -47 -33q-37 0 -37 12z" />
<glyph unicode="0" horiz-adv-x="788" d="M61 795q0 65 3 130.5t13 149.5t26 157.5t43.5 147.5t63.5 127.5t89.5 89.5t118.5 41h10q70 0 128 -70.5t94.5 -186.5t56.5 -260.5t20 -297.5q0 -151 -19.5 -285.5t-57.5 -244.5t-103 -175t-148 -65h-10q-75 0 -133 45t-94 116.5t-59.5 171t-32.5 199.5t-9 210zM133 772 q0 -128 15.5 -241t45.5 -203.5t81 -143.5t116 -53q104 0 183 168.5t79 476.5v90q0 344 -70.5 526.5t-172.5 182.5q-82 0 -147 -121.5t-97.5 -303t-32.5 -378.5z" />
<glyph unicode="1" horiz-adv-x="335" d="M61 1425q3 15 7 23l120 96l2 82q10 12 46 12q28 0 36 -12v-20q0 -4 -1 -23.5t-1 -40.5q4 -8 4 -12l-6 -4q-12 -375 -37 -1483q0 -29 -49 -29h-20l-8 9l-4 36l36 1403l-77 -65q-16 0 -32 8t-16 20z" />
<glyph unicode="2" horiz-adv-x="634" d="M61 47v35q0 203 32.5 363.5t95 303t182.5 351.5q116 166 116 323q0 68 -38 106t-99 38q-51 0 -117 -84q-5 -7 -12.5 -19t-11.5 -18t-12.5 -11t-20.5 -5q-6 0 -15.5 5t-15.5 10.5t-6 6.5q0 5 3.5 16t7 20t4.5 9q24 60 76 100.5t108 40.5q106 0 170.5 -54t64.5 -177 q0 -70 -49 -176t-116 -225t-131.5 -252.5t-101.5 -299t-21 -325.5q1 -7 3 -8.5t7 -1.5q49 0 156 15.5t157 15.5h29q11 -4 21 -13.5t10 -21.5q0 -14 -19 -33h-35q-79 -1 -123.5 -3.5t-112.5 -15t-116 -36.5q-1 0 -8 -1t-8 -1q-42 0 -54 22z" />
<glyph unicode="3" horiz-adv-x="702" d="M61 145q0 14 12.5 22.5t30.5 8.5q17 0 33 -8q6 -3 13.5 -19t9.5 -18q61 -55 121 -55q58 0 111 50t87 122.5t54 148t20 131.5q0 192 -94 320q-26 34 -49.5 51t-57.5 21q-28 4 -90 4q-37 21 -37 43q0 12 6.5 18t28.5 10q254 0 254 322q0 94 -50 170t-128 76q-30 0 -55 -15 t-38.5 -32.5t-30.5 -32.5t-32 -15t-34 9.5t-19 21.5q0 1 1 3t1 3q19 62 75.5 103t123.5 41q108 0 192 -101.5t84 -222.5v-22q-4 -94 -43.5 -181t-101.5 -155q-2 -2 -2 -6q0 -1 10 -11q93 -90 133.5 -187t40.5 -233q0 -56 -16 -124.5t-48 -138t-74 -128t-100 -95t-120 -36.5 q-82 0 -164 62q-2 1 -11.5 8t-12 9.5t-10 8.5t-10.5 10.5t-7 11t-5.5 13t-1.5 14.5z" />
<glyph unicode="4" horiz-adv-x="811" d="M61 555q0 25 15 51l200 1039q5 24 13.5 32.5t29.5 8.5q31 0 31 -33l-192 -985q0 -9 -4 -31.5t-4 -36.5q0 -1 2 -3t2 -3l352 -14q4 12 4 30l33 488q2 40 10 55.5t37 15.5q23 0 27 -7.5t4 -37.5v-9t-1 -12.5t-1.5 -19t-2.5 -31.5t-4 -46t-5.5 -67t-7.5 -90.5t-9.5 -119.5 t-11.5 -151l108 -3q64 0 64 -40q0 -9 -8 -21t-15 -12h-149q-7 -45 -9.5 -88t-8 -155.5t-15.5 -256.5q-11 -8 -15 -10q-8 -4 -14 -4q-43 0 -43 20v55l29 422q0 17 -29 17l-287 18q-52 0 -77 -2q-17 4 -32.5 14t-15.5 23z" />
<glyph unicode="5" horiz-adv-x="641" d="M61 272q0 50 31 50q3 0 20.5 -2.5t20.5 -2.5q19 -7 19 -26v-17q0 -12 -1 -33.5t-1 -33.5q4 -53 31 -96t75 -43q66 0 125 97.5t92 241t33 283.5t-38 236t-116 114q-21 7 -53 7h-31q-4 0 -25.5 -1.5t-25.5 -1.5q-12 -3 -40 -18.5t-42 -15.5q-18 0 -38 10t-21 27q0 6 -1 19 t-1 19q0 17 1 37t2.5 44t2.5 38l26 391q3 3 11 15t17 19t20 7q55 -6 114 -9.5t135 -6t111 -4.5q16 0 30.5 -10.5t14.5 -26.5q0 -2 1 -4.5t1 -3.5q0 -11 -10 -21q-3 0 -19 -2t-18 -2h-8q-14 0 -143.5 4t-143.5 4h-14q-6 0 -8 -4q-27 -153 -31 -424l10 -12h135 q269 -12 269 -414q0 -117 -25 -288q0 -3 -1 -10.5t-1 -10.5q-7 -53 -30.5 -117t-59 -126t-87.5 -103t-108 -41q-95 0 -145.5 58t-56.5 159q0 5 -2.5 23t-2.5 28z" />
<glyph unicode="6" horiz-adv-x="679" d="M61 442v117q0 61 11 138t57 347q8 32 8 39l80 254q27 81 91.5 219t88.5 138q16 0 28.5 -9t12.5 -28q0 -16 -12 -43l-64 -127l-106 -287q-43 -118 -63 -229q0 -26 -17 -111q0 -12 -4 -16q-25 -150 -25 -234v-37q86 119 234 119l31 -2q11 -2 44 -12t40 -14 q73 -53 97.5 -125t24.5 -187q0 -93 -26.5 -175t-83.5 -137.5t-133 -55.5q-88 0 -160 69q-62 59 -96.5 118t-42.5 142q-8 34 -15 129zM152 385q0 -72 29 -147.5t81.5 -128t112.5 -52.5q52 0 91.5 47.5t58 117t18.5 147.5q0 89 -27.5 157.5t-79.5 87.5q-14 7 -47 7 q-46 0 -85 -9.5t-75 -31.5t-56.5 -65.5t-20.5 -104.5v-25z" />
<glyph unicode="7" horiz-adv-x="526" d="M61 1630q0 29 58 29q123 0 272 -35l29 -6q45 -12 45 -49q0 -2 -1 -8t-1 -7l-213 -1544q-11 -20 -39 -20q-20 0 -27.5 6t-7.5 29q0 1 2 12q43 281 209 1505q0 5 -6 8.5t-10 3.5q-101 24 -232 27q-78 8 -78 49z" />
<glyph unicode="8" horiz-adv-x="636" d="M61 403q0 97 24 190.5t67 164.5q4 9 37.5 50t33.5 54q0 1 -1 6t-1 6q-53 201 -53 388q0 417 223 417q49 0 84.5 -29t54 -79t27 -104.5t8.5 -116.5q0 -201 -102 -443q-3 -9 -24.5 -55.5t-26.5 -54.5q0 -9 -17 -49q136 -163 178 -402q0 -4 1 -25.5t1 -25.5 q0 -124 -53.5 -213.5t-146.5 -89.5q-65 0 -118 22.5t-89 61t-60.5 91.5t-35.5 112t-11 124zM131 393q0 -65 13.5 -120.5t42 -101.5t77.5 -72.5t115 -26.5q38 0 64.5 35.5t36 80.5t9.5 93q0 123 -47 229q-80 170 -178 266q-55 -38 -94 -150.5t-39 -232.5zM248 1255 q0 -252 74 -409q2 -10 10 -10q5 0 10 5.5t7.5 11.5t5.5 13l3 8q42 98 64.5 157.5t42.5 150.5t20 176q0 30 -3.5 65.5t-11.5 79t-26 71.5t-43 28q-39 0 -71 -22.5t-43 -66.5q-39 -134 -39 -258z" />
<glyph unicode="9" horiz-adv-x="679" d="M61 1325q0 93 26.5 175.5t84 138t133.5 55.5q87 0 160 -70q62 -59 96.5 -118t42.5 -142q7 -28 14 -129v-117q0 -62 -11 -141.5t-56 -343.5q-8 -32 -8 -39l-80 -254q-27 -81 -91.5 -218.5t-88.5 -137.5q-16 0 -28.5 9t-12.5 27q0 16 12 43l63 127l107 287q43 117 63 230 q0 25 17 110q0 13 4 17q24 144 24 233v37q-86 -119 -233 -119l-31 2q-11 2 -44 12.5t-40 14.5q-73 53 -98 124.5t-25 186.5zM137 1309q0 -90 27.5 -158.5t79.5 -87.5q12 -6 47 -6q46 0 85 9.5t75 31.5t56.5 65.5t20.5 104.5v24q0 72 -29 147.5t-81.5 128t-112.5 52.5 q-77 0 -122.5 -94.5t-45.5 -216.5z" />
<glyph unicode=":" horiz-adv-x="239" d="M61 1079q0 32 23.5 47t50.5 15q16 0 28.5 -16t12.5 -38q0 -25 -15.5 -40t-35.5 -15q-14 0 -22 1t-19.5 5t-17 14t-5.5 27zM63 47q0 32 23.5 47t50.5 15q16 0 28.5 -16t12.5 -38q0 -25 -15.5 -40t-35.5 -15q-14 0 -22 1t-19.5 5t-17 14t-5.5 27z" />
<glyph unicode=";" horiz-adv-x="237" d="M61 158q0 30 64 30q21 0 25 -22v-100q0 -14 -2.5 -56t-6 -90t-4.5 -57q-2 -5 -8 -23.5t-11 -29.5t-16.5 -21t-27.5 -10v315q0 11 -6.5 31.5t-6.5 32.5zM61 1206q0 32 23.5 47t50.5 15q16 0 28.5 -16t12.5 -38q0 -25 -15.5 -40t-35.5 -15q-14 0 -22 1t-19.5 5t-17 14 t-5.5 27z" />
<glyph unicode="?" horiz-adv-x="493" d="M61 1538v14q0 66 61 107t128 41q182 0 182 -168q0 -84 -43 -199q-11 -31 -75 -176.5t-83 -228.5q-34 -153 -34 -172l-25 -385v-25q0 -47 -15 -72.5t-32 -25.5q-11 0 -19 10.5t-8 28.5q11 286 25.5 433.5t43 254.5t89.5 239l63 140q37 86 37 168q0 129 -102 129 q-39 0 -65.5 -20t-37 -44.5t-24.5 -44.5t-31 -20q-22 0 -35 16zM113 25q0 7 8.5 17.5t15.5 10.5h43q7 0 12 -10t5 -16q0 -29 -43 -29q-41 0 -41 27z" />
<glyph unicode="@" horiz-adv-x="962" d="M61 776q0 163 31.5 314t91.5 274.5t157 199t218 78.5h8q83 0 149 -48t105 -128t59.5 -176t20.5 -200q0 -122 -25 -226.5t-76.5 -171.5t-119.5 -67q-52 0 -86 29.5t-62 84.5q-1 0 -15 -26t-45 -52t-73 -26q-71 0 -107 53t-36 135q0 72 25.5 143.5t76 121t111.5 49.5 q117 0 117 -86q0 -36 -12.5 -107t-12.5 -108q0 -39 41 -93.5t86 -54.5q57 0 98 126.5t41 289.5q0 88 -14.5 167t-44 148t-82 113t-121.5 51h-8q-104 0 -187 -69t-134 -184t-78 -255.5t-27 -290.5q0 -141 23 -269.5t67 -231t113 -163.5t155 -61q52 0 93 36.5t64.5 89.5 t39.5 122t22 123.5t7 104.5q11 14 39 14q16 0 23 -4.5t8 -10.5t1 -24v-10q0 -69 -9 -135t-31 -133.5t-54.5 -118t-85.5 -82t-119 -31.5q-103 0 -185.5 65t-134 175t-79 247.5t-27.5 288.5zM324 840q0 -137 75 -142h9q42 0 69 104.5t27 205.5q0 27 -4 55q-3 18 -27 18 q-47 0 -82.5 -38.5t-51 -92t-15.5 -110.5z" />
<glyph unicode="A" horiz-adv-x="657" d="M61 1077q0 24 43 29q24 4 78 4l4 6l84 451q3 8 6.5 26.5t6.5 29.5t13.5 20.5t27.5 9.5q22 0 37 -16.5t20 -31t12 -42.5l78 -445l10 -8h97q8 0 13 -9t5 -18q0 -34 -57 -34h-15q-14 0 -43 -5l97 -1015v-9q0 -12 -9.5 -18.5t-17.5 -7t-23 -0.5h-16l-14 14l-101 1024 q0 1 1 5.5t1 6.5q0 7 -4 7l-139 -9l-92 -1001q-3 -23 -41 -23q-24 0 -33 11v49q0 19 3 54t3 52l80 863h-86q-9 0 -19 10t-10 20zM268 1110q94 0 117 6q2 0 6 4l-63 404z" />
<glyph unicode="B" horiz-adv-x="716" d="M61 12q0 20 24.5 28t49.5 9.5t25 3.5l49 1534q-3 0 -11 -1t-14 -1q-59 0 -59 31q0 11 8.5 17t14 6.5t20.5 2.5h100q148 -9 232 -101.5t84 -215.5q0 -96 -53.5 -177.5t-153.5 -119.5q53 -12 95.5 -40.5t71 -65t49.5 -86.5t32.5 -96.5t18.5 -104.5t9 -102.5t2 -96.5 q0 -95 -28.5 -171.5t-78.5 -128t-121 -86t-152 -49.5t-175 -15q-14 0 -26.5 6.5t-12.5 19.5zM238 57q101 3 179 56.5t118 138t40 184.5v29q0 53 -2.5 97t-10.5 97.5t-22 95.5t-38 84.5t-57 72.5t-81 50.5t-108 26.5zM260 1067q113 29 172.5 75t69.5 146v27q0 128 -52 187 t-176 71z" />
<glyph unicode="C" horiz-adv-x="710" d="M61 831q0 150 17 282t53.5 246.5t102.5 181.5t155 67q79 0 132.5 -55.5t80.5 -137.5q0 -13 -12.5 -24t-26.5 -11q-35 0 -43 17q-2 8 -18 48t-17 44q-9 23 -38 44t-54 21q-76 0 -130 -67.5t-81.5 -182.5t-39 -235.5t-11.5 -257.5v-61q11 -656 295 -656q35 0 60.5 28.5 t39 68.5t21.5 96t10 98t4 88v8q0 30 8.5 46t36.5 16q43 0 43 -29v-8q-7 -136 -29.5 -233.5t-57.5 -151t-75.5 -77.5t-89.5 -24q-54 0 -100 21t-78 53t-58 85t-42.5 100.5t-28 117t-17 118t-8.5 120t-3.5 105.5t-0.5 91z" />
<glyph unicode="D" horiz-adv-x="813" d="M61 20q0 10 10.5 19.5t20.5 11.5l92 10l41 1471q0 2 1 13t1 14l-2 16l-4 6q-3 0 -11 -1t-13 -1q-66 0 -66 35q0 28 45 28q78 0 142 -7t116.5 -22.5t94 -36.5t74 -54t56 -68.5t40 -86.5t27 -102t16.5 -120.5t8 -137.5t2 -157v-68q0 -259 -45 -430q-26 -97 -57.5 -162 t-80 -112t-117.5 -68.5t-165 -21.5q-33 0 -96 5t-97 5h-16q-17 7 -17 22zM272 109q0 -18 9 -54q4 -4 6 -4h39q70 0 124.5 28t89.5 68.5t60 110.5t37 126.5t18.5 147t7.5 141.5t1 138v88q0 52 -0.5 89.5t-4 96t-10 101t-19 96.5t-29.5 92.5t-43.5 78.5t-59.5 64.5t-78.5 40 t-100.5 15.5q-6 0 -6 -4q-17 -155 -41 -1268v-192z" />
<glyph unicode="E" horiz-adv-x="745" d="M61 1616q0 13 6 21.5t18 12t20.5 5t24 2t17.5 0.5q24 2 79 7.5t83 7.5t72.5 4.5t85.5 2.5h25q22 -7 22 -28q0 -9 -12 -20t-21 -11l-286 -18q-7 -5 -9 -5v-12q0 -17 4.5 -52t4.5 -52l38 -686q0 -27 11 -27q25 0 68 8t65 8h29q12 -6 12 -20q0 -24 -43 -34t-86 -15.5 t-43 -16.5l49 -608q0 -22 10 -22q12 0 151 26.5t185 26.5h8q35 0 35 -25v-10q-9 -17 -20 -23l-420 -59h-31q-14 9 -14 23q0 8 10 17.5t10 18.5l-110 1516q0 11 -24 17t-24 20z" />
<glyph unicode="F" horiz-adv-x="505" d="M61 1632q0 17 16.5 25t33.5 8q20 0 95.5 -2t151.5 -2q40 8 60 8q26 0 26 -22q0 -12 -7 -20t-22.5 -12t-26.5 -5t-32 -2l-170 -6q0 -1 -1 -7t-2 -14.5t-1 -13.5l21 -496h211q3 0 9.5 -8t6.5 -12q0 -13 -10.5 -24t-22.5 -11h-75q-78 0 -113 -4q-2 -3 -2 -15q0 -88 53 -903 q0 -35 -43 -35h-18q-21 15 -21 68l-69 1475q0 5 -24 8t-24 22z" />
<glyph unicode="G" horiz-adv-x="718" d="M61 643q0 214 12 382t28 275.5t46 183t53 112.5t62 56.5t60 22t59 2.5q108 0 181 -76t73 -184q0 -51 -43 -51q-15 0 -25.5 27t-21 66t-25.5 78t-48 66t-81 27q-37 0 -69 -18.5t-56 -55t-43.5 -79t-33 -104t-23.5 -115t-16 -126t-9.5 -124.5t-5 -122.5t-2 -107.5t-0.5 -92 v-45q0 -254 83.5 -404.5t195.5 -150.5q65 0 106 51t56.5 128t15.5 181q0 10 -6 508l-49 -6q-33 -4 -95 -4q-65 0 -65 29t45 33l190 8q38 0 47 -17v-442q0 -103 -5.5 -178t-22 -144.5t-44 -113t-73.5 -69t-109 -25.5q-80 0 -142.5 40t-99 102.5t-60 147.5t-32 164t-8.5 164z " />
<glyph unicode="H" horiz-adv-x="811" d="M61 1190q0 28 74 37v385q13 18 49 18q21 0 31 -12l-8 -389l368 31v75q0 36 -2 106t-2 107v70q5 8 24 13t32 5l6 -2q5 -2 12 -11t8 -17l-6 -336h62q41 0 41 -31q0 -16 -14 -22t-31.5 -5.5t-33 -2.5t-18.5 -13v-14q0 -4 -1 -39t-1 -39v-1110q-6 -11 -15 -16t-16 -6t-22 -1 h-14l-9 11q-4 31 -4 43v1171l-10 4l-346 -33q-13 0 -16 -8l-15 -1155q-8 -16 -17 -20t-30 -4q-1 0 -9.5 1t-10.5 1q-3 1 -8 12l8 1153q0 11 -8.5 15.5t-19.5 5t-19.5 5.5t-8.5 17z" />
<glyph unicode="I" horiz-adv-x="288" d="M61 1573q3 16 18.5 23.5t33.5 7.5q25 0 30 -19q0 -10 -1 -29.5t-1 -29.5q0 -63 9.5 -178t11.5 -148q3 -45 6 -145.5t11.5 -237t25.5 -317.5v-15q2 -43 8.5 -144t10 -177t3.5 -146v-20q-14 -23 -51 -23q-22 0 -22 15l-91 1491v26q0 46 -2 66z" />
<glyph unicode="J" horiz-adv-x="509" d="M61 141v19q6 8 22 16t26 8q17 0 25.5 -20t12 -43.5t21 -43.5t49.5 -20q31 1 55.5 28.5t40.5 82t27 122t16.5 163.5t8.5 191t3.5 221t0.5 237t1 254.5t3 259.5q0 8 16 16h21q25 0 30.5 -8.5t5.5 -36.5q0 -124 1.5 -383t1.5 -377q0 -153 -5.5 -271.5t-21 -226t-40 -177.5 t-64.5 -111t-93 -41h-18q-68 8 -107 43t-39 98z" />
<glyph unicode="K" horiz-adv-x="638" d="M63 1628q6 25 56 25q7 -2 22 -17q-2 -18 -2 -49l51 -620q14 -19 64 -19q163 0 170 389q0 55 -4 165t-4 165q0 14 14 21.5t29 7.5q24 0 30 -21q0 -64 5.5 -166t5.5 -147q0 -59 -3 -105t-14 -107t-30.5 -105.5t-56 -84.5t-87.5 -61q97 -64 143.5 -160t65.5 -231 q2 -14 4 -49.5t7.5 -113t15.5 -175.5q2 -24 17.5 -85.5t15.5 -94.5q0 -10 -6.5 -19.5t-16.5 -9.5q-23 0 -39.5 15t-21.5 38l-62 559q-9 47 -27 93.5t-46 91.5t-69.5 75t-90.5 35q73 -733 73 -833q-7 -58 -51 -58q-6 0 -11 5.5t-7 11.5z" />
<glyph unicode="L" horiz-adv-x="491" d="M61 1567q0 20 45 20l11 -2q15 -159 26 -560t41 -890l4 -55l201 35l6 2q35 0 35 -25q0 -12 -5.5 -28t-12.5 -19l-260 -31h-25q-12 6 -12 21q-4 159 -29 699.5t-25 832.5z" />
<glyph unicode="M" horiz-adv-x="845" d="M61 39q52 1428 66 1610q5 24 53 24q13 0 19 -12q0 -5 8 -29q160 -618 164 -620q19 73 235 598q0 19 16.5 29t36.5 10q23 0 27 -37q4 -46 4 -146l84 -1316q0 -20 5 -57.5t5 -55.5q0 -17 -13 -26t-30 -9q-26 0 -28 12l-101 1422q0 -1 -1 -5.5t-1 -5.5q-54 -135 -125 -318 q-65 -169 -86.5 -211t-46.5 -42q-14 0 -20 6.5t-8.5 23t-4.5 21.5q-17 70 -33.5 136t-27.5 109.5t-21 84.5t-16 65.5t-11.5 46.5t-8.5 34.5t-6 22t-5 15.5l-3.5 10.5t-4.5 10.5q-46 -1277 -53 -1393q-5 -24 -43 -24h-18q-7 2 -7 16z" />
<glyph unicode="N" horiz-adv-x="823" d="M61 1540q0 25 12 36t40 11q22 0 37 -22l487 -1360v4t-0.5 9.5t-1 16.5t-0.5 26.5v37.5q0 335 45 1212v9q3 31 11.5 41t41.5 10q10 0 15.5 -12.5t5.5 -24.5l-60 -1487q-2 -31 -47 -31h-16q-12 8 -15 19q-4 14 -9.5 32.5t-20 61t-34 97.5t-58.5 165.5t-85 240t-121.5 344.5 t-160.5 458q4 -105 12.5 -327t13.5 -351.5t9 -309.5t4 -323v-107q-8 -11 -16 -13.5t-27 -2.5h-14l-9 10q-4 0 -4 45q-1 3 -2 39t-2 85.5t-2 68.5v18z" />
<glyph unicode="O" horiz-adv-x="862" d="M61 856q0 156 25 297.5t73.5 255.5t127.5 182t178 68q91 0 156 -50.5t104.5 -149.5t57.5 -233.5t18 -312.5q0 -124 -9 -242.5t-33.5 -244.5t-62 -219.5t-100.5 -154.5t-143 -62h-31q-79 0 -142.5 52t-103.5 136.5t-66.5 199t-37.5 233t-11 245.5zM141 805 q0 -147 19 -280.5t55.5 -241.5t95 -172t131.5 -64q66 0 120 74t88 195.5t52.5 270.5t18.5 306q0 150 -15 275.5t-45 224.5t-81 155t-119 56q-77 0 -139.5 -69t-101 -183t-59 -255t-20.5 -292z" />
<glyph unicode="P" horiz-adv-x="626" d="M61 1632q0 16 14 25.5t29 11.5q12 0 37 1t39 1q59 0 106.5 -4.5t100 -20.5t88.5 -42t61.5 -73t28.5 -110q4 -50 4 -67q0 -170 -88 -264t-264 -119l-2 -6q-2 -17 -2 -191q0 -58 0.5 -150t1.5 -260t2 -309v-28q-5 -11 -25.5 -18t-35.5 -7q-3 0 -15 4l-10 2l16 1610 q-22 -6 -47 -8q-39 0 -39 22zM221 1034q87 2 150.5 52.5t93 124t29.5 157.5v8q0 19 -2.5 41t-15 58t-33 63t-62.5 47.5t-98 20.5q-18 0 -58 -4z" />
<glyph unicode="Q" horiz-adv-x="923" d="M61 856q0 156 25 297.5t73.5 255.5t127.5 182t178 68q91 0 156 -50.5t104.5 -149.5t57.5 -233.5t18 -312.5q0 -173 -21 -354l76 -55q2 -5 6 -23q0 -12 -15.5 -20t-31.5 -8l-47 34q-17 -105 -42.5 -190t-63 -155.5t-91 -110.5t-118.5 -41h-31q-79 0 -142.5 52 t-103.5 136.5t-66.5 199t-37.5 233t-11 245.5zM141 805q0 -147 19 -280.5t55.5 -241.5t95 -172t131.5 -64q62 0 114 67.5t86 176t54 250.5l-110 84q0 14 16 25.5t31 11.5q9 0 14 -5l60 -43q14 126 14 279q0 150 -15 275.5t-45 224.5t-81 155t-119 56q-77 0 -139.5 -69 t-101 -183t-59 -255t-20.5 -292z" />
<glyph unicode="R" horiz-adv-x="700" d="M61 1622q0 12 13.5 22.5t25.5 10.5q14 4 70.5 9.5t108.5 6.5q133 0 208 -46t91 -167q0 -154 -49.5 -250.5t-186.5 -187.5q0 -4 4 -4q42 -22 70 -39t54 -46.5t41 -49.5t31 -71t23.5 -86.5t19 -122t17.5 -150.5t19 -197q2 -23 8 -91t10 -110v-14q-11 -23 -66 -23 q-4 0 -9 21.5t-8 54t-6 63.5t-5 57.5t-2 29.5q-33 329 -54 430q-37 186 -116 247q-51 39 -131 39l10 -933q-8 -29 -51 -29q-21 0 -21 6l-22 1577l-8 20q-9 0 -25.5 -2t-24.5 -2q-11 0 -25 8t-14 19zM229 1606l19 -557q254 107 254 376q0 57 -14 92t-49.5 54.5t-83 26.5 t-126.5 8z" />
<glyph unicode="S" horiz-adv-x="591" d="M61 1430v22q0 103 67.5 165t156.5 62q84 0 143 -59t59 -172q0 -17 -20.5 -29t-38.5 -12q-12 0 -12 6q0 40 -8 88q-9 51 -42 79t-75 28q-50 0 -93 -39.5t-57 -110.5v-8q0 -108 38.5 -230t94 -235t111.5 -227t98 -245t47 -251v-16q0 -111 -70.5 -178.5t-164.5 -67.5 q-91 0 -154 68.5t-63 199.5v21q0 47 43 47q12 0 27.5 -7t15.5 -18q0 -33 2.5 -62t6.5 -51t7 -35.5t7.5 -28.5t5.5 -17q23 -64 110 -64q70 0 111 65.5t41 147.5t-24.5 172.5t-61.5 171t-84 179t-90 190.5t-80 212t-54 239z" />
<glyph unicode="T" horiz-adv-x="579" d="M61 1593q0 35 43 35h17q47 -3 176 -7t199 -11q22 -18 22 -31q0 -6 -7.5 -14.5t-12.5 -8.5h-203l-4 -1587q0 -14 -14.5 -22t-28.5 -8h-8q-25 0 -25 12q0 15 -1 100t-1 101q0 15 16 1413l-129 2l-28 14q-11 8 -11 12z" />
<glyph unicode="U" d="M61 750q0 192 16.5 499t16.5 367q3 39 47 39q25 0 33 -13q0 -149 -18.5 -461t-18.5 -481q0 -651 197 -651q211 0 211 1051q0 113 -3 258t-3 160v75q7 27 45 27q41 0 41 -27v-139q0 -20 1 -94t1 -141q-7 -298 -17.5 -499.5t-32.5 -340.5t-44 -214t-67.5 -114.5t-85.5 -48 t-114 -8.5q-205 38 -205 756z" />
<glyph unicode="V" horiz-adv-x="741" d="M61 1608q6 20 52 20h8q16 0 18 -8l260 -1337l199 1298q0 4 0.5 15.5t1 17t2.5 14t5.5 12.5t10.5 7.5t17 3.5h10q30 0 35 -13v-45q-2 -17 -9 -56.5t-22.5 -133t-39.5 -246.5t-69.5 -457.5t-103.5 -705.5h-49z" />
<glyph unicode="W" horiz-adv-x="890" d="M61 1618q3 14 16.5 21.5t28.5 7.5q22 0 29 -13q53 -710 111 -1409q86 392 86 398q3 30 6 47.5t16.5 36t36.5 18.5q24 0 33 -14l166 -543l164 1446q18 20 49 20q11 0 18.5 -9.5t7.5 -20.5q0 -18 -3.5 -46.5t-15.5 -124.5t-30 -241t-54 -457t-79 -712q0 -12 -19 -16.5 t-34 -4.5q-18 0 -25 21q-59 181 -101.5 321.5t-56.5 193t-18 60.5q-111 -598 -139 -604q0 -4 -31 -4q-23 0 -36.5 115t-48.5 562q-43 542 -77 951z" />
<glyph unicode="X" horiz-adv-x="700" d="M61 -12q0 1 1 5t1 5l263 897q-164 665 -164 684q0 23 26 23t33 -5l150 -540l178 518q0 1 2.5 10t3.5 12t4.5 9.5t7 9.5t9 5.5t12.5 2.5q43 0 43 -31v-12l-21 -65q-129 -342 -192 -578q-8 -16 -8 -37v-8q5 -34 229 -873q0 -13 -15 -20.5t-30 -7.5q-21 0 -27 10 q-4 40 -209 741l-215 -720q0 -26 -13 -42t-38 -16q-31 0 -31 23z" />
<glyph unicode="Y" d="M61 1565v28q0 13 31 13q26 0 35 -10.5t14 -39.5l23 -120l139 -559l238 716q15 49 43 49q14 0 28.5 -7t14.5 -19t-8 -29.5t-9 -21.5q-5 -22 -12 -44.5t-25.5 -76.5t-44.5 -126.5t-79 -228.5t-117 -348l-2 -100q0 -11 -2 -79t-4 -193.5t-2 -276.5v-74q4 -4 4 -22 q0 -11 -18 -17t-32 -6q-15 0 -21.5 7t-7.5 14.5t-1 25.5l14 719v9l-168 682q-7 22 -19 75t-12 60z" />
<glyph unicode="Z" horiz-adv-x="540" d="M63 39l347 1493l-269 29q-12 2 -29 12t-18 20q0 9 6.5 18.5t14.5 12.5l346 -35q18 -13 18 -33l-329 -1484q4 0 4 -4q126 -17 223 -17q29 -11 29 -28q0 -1 -1.5 -6.5t-1.5 -6.5q-20 -12 -28 -12q-43 0 -135.5 6t-149.5 6q-27 0 -27 29z" />
<glyph unicode="_" horiz-adv-x="1173" d="M61 41q0 17 15 20q654 -12 1001 -12q35 -15 35 -53q0 -10 -25 -10q-117 6 -993 8q-13 1 -23 17.5t-10 29.5z" />
<glyph unicode="a" horiz-adv-x="587" d="M61 948q0 18 20.5 26t41 9.5t20.5 3.5l56 498q2 8 6.5 40.5t9.5 54t19 41t34 19.5q22 0 32 -12t17 -37q9 -54 117 -567h53q6 -6 12.5 -23t6.5 -26q0 -6 -64 -17l86 -919q0 -21 -47 -21h-14l-10 11l-80 925l-164 -34l-45 -844v-53q0 -4 -6.5 -12.5t-9.5 -8.5h-48 q-2 0 -12 10v27l45 866q0 8 -10 10q-66 6 -66 33zM221 991l137 21v8l-90 516q-5 -56 -18.5 -169t-21 -204t-7.5 -172z" />
<glyph unicode="b" horiz-adv-x="555" d="M61 1616q0 29 62 29h22q52 0 81.5 -1t74.5 -9t80 -23q80 -58 80 -221q0 -43 -6.5 -97t-21.5 -123.5t-49.5 -127t-82.5 -80.5q51 -10 88 -37.5t57 -61.5t32 -83.5t15 -92t3 -98.5q0 -7 -1 -75.5t-1 -158.5q0 -156 -57.5 -243t-203.5 -133q-17 -5 -62 -12t-54 -9h-8 q-15 0 -29 7t-14 20q0 12 10 20v133q0 335 57 1420v26l-4 6q-2 0 -7.5 -1t-8.5 -1q-19 0 -35.5 6.5t-16.5 20.5zM145 96q0 -56 13 -69h16q46 0 107 34t92 72q47 57 47 246q0 143 -14 334q-7 108 -59 148t-173 40q-7 -214 -14.5 -404.5t-11 -277.5t-3.5 -123zM168 987 q0 -4 10 -4q38 0 69 16t51 39.5t34 61t21.5 71t11.5 78.5t5 74.5t1 67.5q0 154 -49 182q-29 18 -84 18h-25l-4 -8q0 -43 -41 -596z" />
<glyph unicode="c" d="M57 868q0 102 5 190t17 182t35.5 167t57.5 132.5t86 91.5t117 32q81 0 148 -62t67 -145q0 -10 -5.5 -18t-13.5 -8q-6 0 -10 2q-24 6 -44 34.5t-31.5 59t-35 55.5t-55.5 25q-49 0 -88.5 -25t-66 -65.5t-46 -103t-30.5 -125t-17 -144.5t-8 -149.5t-2 -151.5q0 -74 2 -219 t2 -213q0 -51 7 -99t25 -96t45 -84t71 -58t100 -22h14q68 10 98.5 47.5t33.5 108.5l12 272q0 25 51 25q12 0 20.5 -7.5t8.5 -19.5l-13 -250l-12 -73q-14 -80 -76.5 -119t-148.5 -39q-82 0 -143 30.5t-96 85t-51.5 122t-16.5 149.5q0 40 -6.5 207.5t-6.5 277.5z" />
<glyph unicode="d" horiz-adv-x="741" d="M61 1618q0 33 101 33h63q98 0 178 -59t130 -149.5t84.5 -204.5t48.5 -218t14 -197v-90q0 -113 -18.5 -217t-59 -196t-98.5 -160.5t-142.5 -108t-185.5 -39.5h-33q-7 2 -14.5 9t-7.5 14q0 14 20 23t23 16l4 55l-31 1454q0 4 -6 4q-70 16 -70 31zM219 1589l25 -1474 q0 -27 2 -31q129 36 213 138t119.5 240.5t35.5 315.5q0 159 -31.5 308.5t-83 259.5t-121 176.5t-142.5 66.5h-17z" />
<glyph unicode="e" horiz-adv-x="735" d="M61 1589q0 18 31 27l402 24q10 0 23 -8t13 -18q0 -12 -6 -18t-20 -11l-297 -29l22 -598q0 -6 13 -6q26 0 74 11.5t73 11.5q55 0 55 -31q0 -26 -14 -26l-197 -33l58 -850l348 31q11 0 23 -10.5t12 -22.5q0 -24 -41 -29l-430 -47q-37 12 -37 29q0 16 20 28l21 13v30 l-84 1493q-1 5 -16.5 8t-30.5 10t-15 21z" />
<glyph unicode="f" horiz-adv-x="589" d="M61 1620q0 22 17 25q23 4 87 5.5t151 1.5t114 1q56 0 74 -6q24 -8 24 -23q0 -31 -18 -31h-281q-4 0 -12 -8l8 -461q23 0 73 3t79 3q51 0 51 -30q0 -23 -27 -31h-63q-18 0 -58 -3t-51 -3h-12q1 -6 6.5 -476.5t5.5 -551.5q0 -5 -6 -13t-10 -8h-41q-12 0 -12 21l-15 1532 l-4 18h-12q-68 0 -68 35z" />
<glyph unicode="g" horiz-adv-x="722" d="M61 922q0 52 3 107t12 130.5t24 142.5t42.5 135t63 116.5t88.5 79t118 30.5q144 0 215 -94q35 -60 35 -144q0 -17 -16 -32t-30 -15q-22 0 -28 8q-3 114 -38 162.5t-138 48.5q-53 0 -96.5 -30.5t-71 -76.5t-47.5 -113t-30 -126.5t-16 -131.5t-7 -112.5t-1 -84.5v-103 q0 -58 1.5 -112.5t8.5 -131t18 -140.5t31.5 -131t47.5 -113.5t69 -77t93 -31.5q27 0 49.5 13.5t39 40.5t28.5 58.5t20 77.5t13 87.5t7.5 98t4 99t1.5 100.5l3 252q-32 0 -85 -5t-71 -5q-17 0 -36 10t-19 27q0 15 18.5 22t34.5 7q40 0 116.5 4.5t110.5 5.5q0 -10 1 -25l1 -14 v-340q0 -41 -0.5 -67.5t-3 -76t-6.5 -84.5t-13 -83.5t-22 -82t-32.5 -70t-44.5 -58.5t-60 -36.5t-76 -14.5q-52 0 -95.5 24t-75 62.5t-57 96t-41.5 115.5t-28 131.5t-18 133t-10 130.5t-4.5 113.5t-0.5 92.5z" />
<glyph unicode="h" horiz-adv-x="808" d="M61 1276q0 9 10.5 21t18.5 12h78q0 176 14 333h33q29 0 33 -8l-19 -319l330 24l8 9l-4 294q0 12 13 18.5t26 6.5q7 0 21.5 -4t15.5 -8l-2 -312q9 0 37.5 2.5t36.5 2.5q37 0 37 -19t-15 -29.5t-28 -12.5t-37 -3h-11l37 -1339q0 -17 -16.5 -24t-34.5 -7q-12 0 -14 2l-8 8 l-41 1350l-349 -21l19 -1239q-4 -14 -21.5 -22t-33.5 -8q-10 0 -19 14v-2q-1 0 -3.5 237.5t-4.5 540.5t-2 459v10l-4 6q-42 0 -66 4q-35 4 -35 23z" />
<glyph unicode="i" horiz-adv-x="243" d="M61 1442v131q0 16 41 16h9q16 0 20 -8v-53q0 -120 49 -1286q2 -6 2 -99q0 -78 -2 -94q-11 -14 -17.5 -17t-25.5 -3h-18q-8 2 -8 20v174z" />
<glyph unicode="j" horiz-adv-x="524" d="M61 203q0 25 2 37q0 20 43 20q29 0 31 -16v-19q0 -26 1.5 -44.5t7.5 -43t21 -38t38 -13.5q26 0 48 24t38.5 72.5t29.5 105t22.5 138t16.5 154t11 171t6.5 170.5t3.5 171t1.5 154.5t0.5 137.5v89q0 116 4 116q11 21 31 21q39 0 45 -17q-3 -88 -4 -219t-2 -236t-4 -235 t-9.5 -232t-17.5 -209t-29.5 -185t-44.5 -141.5t-63.5 -95.5t-85.5 -32q-73 0 -107.5 57.5t-34.5 137.5z" />
<glyph unicode="k" horiz-adv-x="573" d="M61 1645q10 12 37 12q37 0 37 -33q0 -25 -1 -121.5t-1 -193.5q0 -193 2 -338q72 7 127 45.5t85.5 97.5t45.5 124.5t15 135.5q0 5 1 56.5t1 85.5t-1 84t-1 55l16 16h43q2 -2 8 -5t8 -5v-322q0 -124 -59.5 -233t-163.5 -172q44 -17 79 -41.5t60 -59.5t43 -68t29 -84 t17.5 -88t9.5 -99.5t3.5 -100t0.5 -106.5v-15q0 -190 10 -280q-6 -21 -43 -21h-8q-20 0 -23 13q-6 35 -6 127q0 28 1 101t1 114q0 75 -3.5 134.5t-13 129t-29.5 120t-50 94t-78 66.5t-110 23q-15 0 -15 -6l15 -912q-10 -11 -17.5 -13.5t-26.5 -2.5h-14l-14 12z" />
<glyph unicode="l" horiz-adv-x="425" d="M61 1620q7 14 37 14q31 0 39 -18q-2 -12 -2 -78l29 -1475q25 0 81.5 4.5t88.5 4.5q31 0 31 -19q0 -14 -8.5 -25.5t-20.5 -11.5q-37 0 -109.5 -12t-109.5 -12h-19q-12 8 -12 22z" />
<glyph unicode="m" horiz-adv-x="909" d="M61 973v522q0 17 1 37t4 59t12.5 63.5t23.5 24.5q5 0 7 -2q86 -89 301 -710l270 708q4 10 18.5 15.5t26.5 5.5q29 0 38 -74t28 -456q29 -572 57 -1057l-21 -19h-43l-8 8l-2 11q-2 11 -2 14l-67 1421l-250 -667q-17 -43 -33 -43q-23 0 -60 81l-231 586q2 -1184 10 -1412 v-9q0 -33 -57 -33l-18 4q-5 105 -5 922z" />
<glyph unicode="n" horiz-adv-x="819" d="M61 1579q2 23 41 27h15q32 0 74.5 -79.5t96.5 -230t109.5 -318t136 -394.5t154.5 -408l-2 1430q0 5 3.5 8.5t9.5 5t11.5 2.5t12.5 1.5t10 0.5h10l15 -10q-2 -647 -2 -1235v-301q0 -2 -1 -11t-1 -14l-2 -24q-30 -27 -58 -29q-5 1 -7.5 4.5t-5 10.5t-3.5 8l-543 1447 l137 -1495q0 -16 -16 -26t-33 -12q-28 0 -28 104l-125 1438q0 17 -4.5 50t-4.5 50z" />
<glyph unicode="o" horiz-adv-x="788" d="M61 795q0 211 29 374q14 85 42 164t68.5 146.5t97 110.5t120.5 48h10q70 0 128 -70.5t94.5 -186.5t56.5 -260.5t20 -297.5q0 -151 -19.5 -285.5t-57.5 -244.5t-103 -175t-148 -65h-10q-75 0 -133 45t-94 116.5t-59.5 171t-32.5 199.5t-9 210zM123 793q0 -306 81 -495 t187 -189q103 0 182.5 178.5t79.5 488.5v90q0 342 -70 516t-173 174q-52 0 -102 -47.5t-92 -137.5t-67.5 -240.5t-25.5 -337.5z" />
<glyph unicode="p" horiz-adv-x="604" d="M61 1552q0 14 10 22.5t19.5 10t27.5 2t19 0.5q12 0 36.5 2t39.5 2q150 0 240 -74.5t90 -226.5v-4q-1 -86 -33.5 -156.5t-76.5 -110t-95 -66.5t-85 -36.5t-50 -9.5q0 -45 3 -296t3 -539q-12 -17 -49 -17h-17q-10 7 -14 25v1442l-8 2q-60 7 -60 28zM205 1524l4 -535h8 q74 0 133.5 48.5t90 119.5t30.5 146q0 97 -54.5 161t-164.5 64z" />
<glyph unicode="q" horiz-adv-x="858" d="M61 702q0 161 30.5 321.5t85.5 293.5t141.5 216t189.5 83q233 0 233 -516q0 -186 -39 -541q-12 -97 -14 -121q6 -12 34 -14.5t51.5 -10t23.5 -32.5q0 -29 -41 -29q-12 0 -40 6.5t-48 6.5q-6 0 -6 -3l-9 -24q-12 -38 -18 -55.5t-20.5 -52t-26.5 -51.5t-32.5 -41.5 t-43.5 -36.5t-55 -21.5t-70 -9.5q-82 0 -145.5 51.5t-102.5 140t-58.5 200.5t-19.5 240zM139 668q0 -113 15 -209.5t45.5 -172.5t81 -119.5t116.5 -43.5q33 0 62 18t48 42.5t37 63t26.5 64.5t19.5 62q0 6 -57.5 20t-57.5 33q5 31 49 31q15 0 40 -9.5t38 -9.5q6 0 8 4 q8 10 20.5 92.5t23 219t10.5 264.5q0 109 -8 201t-26 172t-51 127t-79 49h-6q-99 0 -182.5 -143t-128 -348.5t-44.5 -407.5z" />
<glyph unicode="r" horiz-adv-x="653" d="M61 1610q0 13 21.5 22t55.5 13t64.5 6t61 3t33.5 1h18q74 0 130 -36.5t86.5 -97t45.5 -128t15 -140.5q0 -113 -66.5 -210t-171.5 -123q76 -12 129 -62.5t70 -126.5q20 -93 20 -307q0 -186 9 -373q1 -13 5.5 -39t4.5 -39q0 -14 -12.5 -21t-28.5 -7q-31 0 -37 14 q-14 213 -14 651q0 65 -21.5 119.5t-54.5 87.5t-69 51.5t-68 18.5q-54 0 -66 -45q-2 -8 -3.5 -48.5t-2.5 -45.5v-15q0 -89 5 -268t5 -268v-242q-17 -23 -59 -23q-11 0 -21 39v1581l-4 29q-80 0 -80 29zM221 954q2 -4 6 -4q126 0 204.5 89.5t78.5 215.5q0 31 -5 69 t-19.5 87.5t-38 89t-64.5 67t-94 27.5q-33 0 -51 -4q-15 -7 -16 -432q-1 -129 -1 -205z" />
<glyph unicode="s" horiz-adv-x="602" d="M61 272v31q0 131 60 131q10 -2 22.5 -11.5t12.5 -19.5v-8q-19 -85 -19 -137q0 -56 29 -103.5t80 -60.5q118 0 167.5 75t49.5 210q0 110 -33.5 227.5t-83 221t-100 204.5t-91 214.5t-49.5 215.5v15q0 70 53 125.5t132 56.5h26q89 0 147 -52t58 -139q0 -69 -43 -69 q-20 0 -28 14q0 93 -39 160q-31 31 -93 31q-61 0 -97 -43t-36 -107q12 -103 53 -216t91 -212.5t98 -201t80.5 -216t32.5 -223.5q0 -335 -291 -358q-189 0 -189 245z" />
<glyph unicode="t" horiz-adv-x="616" d="M61 1552q0 10 10.5 17.5t20.5 7.5h98l17 4q2 34 10.5 46.5t38.5 12.5q11 0 24 -5.5t13 -14.5q0 -43 4 -43q6 -6 20 -6h211q9 0 18 -9t9 -18q0 -10 -8.5 -20.5t-18.5 -10.5l-235 -4q-10 -1006 -10 -1431v-53q0 -28 -13.5 -47t-29.5 -19q-13 0 -23 16.5t-10 49.5v1488 q-27 5 -37 5h-59q-17 2 -33.5 11t-16.5 23z" />
<glyph unicode="u" horiz-adv-x="677" d="M61 670q0 392 80 907q2 14 35 14q43 0 43 -24q-28 -148 -53 -403t-25 -484q0 -126 9.5 -228.5t29.5 -187t57 -131.5t87 -47q53 0 92 35t62.5 93t37 147t18.5 181.5t5 213.5q0 104 -5.5 325.5t-5.5 329.5v143q11 15 41 15q39 0 39 -23l4 -411q0 -44 2 -144.5t2 -163.5 q0 -108 -3.5 -195t-13 -185.5t-28.5 -171.5t-48 -134.5t-74 -94t-103 -32.5q-21 0 -33 2q-252 0 -252 654z" />
<glyph unicode="v" horiz-adv-x="800" d="M61 1634q19 41 41 41q24 0 38 -26t14 -54q0 -46 235 -1411l277 1340q10 14 39 14q14 0 24 -6.5t10 -18.5q0 -26 -6.5 -60.5t-28 -127t-51.5 -223t-87.5 -404t-125.5 -612.5q-26 -51 -47 -51q-9 0 -16 3.5t-14 11t-13 22t-12.5 35t-13 50.5t-14 68t-16.5 89t-19.5 111 t-23.5 137q-99 581 -190 1072z" />
<glyph unicode="w" horiz-adv-x="921" d="M61 1628v12q0 25 31 25q43 0 47 -25l131 -1435q119 420 146 440q12 8 18 8q34 0 64 -84t57 -212.5t35 -153.5l5 31q50 383 198 1363q1 7 14 12t20 5q33 0 33 -33v-18q-128 -817 -209 -1512q-7 -28 -61 -28q-12 0 -32 67t-81 299q-24 94 -39 150q-40 -149 -71 -255.5 t-49 -158.5t-32 -80.5t-19 -32.5t-11 -4q-16 0 -21.5 7t-7.5 26z" />
<glyph unicode="x" horiz-adv-x="608" d="M61 14v13q0 1 1 2t2 4.5t2 7.5l188 727l-174 762q-14 25 -14 49q0 12 11 19.5t25 7.5q22 0 36.5 -15.5t19.5 -40.5l133 -653l160 700q7 21 30 21q12 0 26.5 -7t14.5 -18q0 -31 -17 -87t-20 -79l-149 -641v-18l186 -709q25 -50 25 -77q0 -17 -15 -25t-32 -8h-19 q-4 3 -8 11.5t-4 10.5l-178 676q-41 -163 -92 -382q-42 -178 -58.5 -225.5t-42.5 -47.5q-37 0 -37 22z" />
<glyph unicode="y" horiz-adv-x="724" d="M61 1577q0 33 41 33q19 0 27 -4q1 0 10 -9l226 -684l227 719q5 13 35 13q37 0 37 -27q0 -12 -11.5 -37.5t-11.5 -26.5l-256 -759l-25 -729v-56q0 -13 -18.5 -20.5t-32.5 -7.5q-24 0 -24 24l32 813q0 23 -4 35q-60 183 -109.5 326t-74.5 210.5t-42 112t-21.5 57t-4.5 17.5 z" />
<glyph unicode="z" horiz-adv-x="628" d="M61 1597q0 23 37 23q118 0 430 4q15 0 27 -9t12 -26q0 -6 -14 -60q-116 -439 -375 -1480q0 -4 6 -4h344q7 -3 15 -14t8 -13q0 -22 -35 -30l-373 -8q-57 0 -57 20q0 29 18 70l375 1499q-60 0 -179.5 -4.5t-180.5 -5.5q-2 1 -12.5 4t-15.5 5t-13 6.5t-12 10t-5 12.5z" />
<glyph unicode="&#xa1;" horiz-adv-x="237" d="M61 1599q0 39 45 39q39 0 39 -24q0 -18 -14.5 -32.5t-32.5 -14.5q-15 0 -26 10t-11 22zM74 1370q0 2 1 12.5t1 12.5q5 12 33 12h32q13 -13 15 -23l20 -1308q-1 -26 -3 -36t-12 -17t-32 -7q-35 0 -35 31z" />
<glyph unicode="&#xaa;" horiz-adv-x="477" d="M61 1503q0 123 62 211t141 88q34 0 60 -26q8 10 32 10q39 0 45 -21q0 -79 -12 -214.5t-12 -213.5q2 -19 20.5 -43.5t18.5 -29.5q0 -6 -13 -11.5t-30 -5.5q-25 0 -43 14.5t-21 45.5q-34 -37 -84 -37q-72 0 -118 61.5t-46 171.5zM135 1491q0 -71 22.5 -117.5t67.5 -46.5 q52 0 74 55.5t25 182.5v30q0 63 -9 95.5t-23.5 41.5t-41.5 9q-32 0 -59.5 -39t-41.5 -96t-14 -115z" />
<glyph unicode="&#xab;" horiz-adv-x="974" d="M61 788q43 51 134.5 165.5t164 200.5t144.5 159l10 9q11 10 15 13t12.5 7t15.5 4q16 0 30.5 -7t14.5 -22q0 -11 -8 -19q-98 -90 -186.5 -195.5t-202.5 -256.5l-35 -45q89 -85 225 -213q198 -187 217 -213q9 -13 2 -13h-4q0 -22 -61 -22zM356 784q43 51 134.5 165.5 t164 200.5t144.5 159q37 32 53 32q45 0 45 -28q0 -11 -8 -19q-98 -90 -186.5 -195.5t-202.5 -256.5l-35 -45q89 -85 225 -213q198 -187 217 -213q9 -13 2 -13h-4q0 -22 -61 -22z" />
<glyph unicode="&#xad;" horiz-adv-x="737" d="M61 823q0 21 11.5 28t36.5 7h26q369 0 500 -8q17 -3 29 -17.5t12 -27.5q0 -10 -8.5 -17.5t-22.5 -7.5q-12 0 -18 2q-102 0 -232.5 -1t-161.5 -1q-104 0 -138 8t-34 35z" />
<glyph unicode="&#xba;" horiz-adv-x="448" d="M61 1503q0 123 62 211t141 88q58 0 90.5 -70.5t32.5 -170.5q0 -74 -17 -138.5t-55 -108.5t-90 -44q-72 0 -118 61.5t-46 171.5zM135 1491q0 -71 22.5 -117.5t67.5 -46.5q47 0 74 72t27 164q0 74 -20 126t-56 52q-32 0 -59.5 -39t-41.5 -96t-14 -115z" />
<glyph unicode="&#xbb;" horiz-adv-x="974" d="M66 368q15 23 200 198q158 149 244 231l-35 45q-114 151 -202.5 256.5t-186.5 195.5q-8 8 -8 19q0 28 45 28q16 0 53 -32q72 -73 144.5 -159.5t163 -199.5t134.5 -166l-487 -448q-61 0 -61 22q-12 -2 -4 10zM361 372q15 23 200 198q158 149 244 231l-35 45 q-114 151 -202.5 256.5t-186.5 195.5q-8 8 -8 19q0 15 14.5 22t30.5 7q7 0 15.5 -4t12.5 -7t14 -13l11 -9q72 -73 144.5 -159.5t163 -199.5t134.5 -166l-487 -448q-61 0 -61 22q-12 -2 -4 10z" />
<glyph unicode="&#xbf;" horiz-adv-x="497" d="M61 166q0 84 43 199q11 31 75 176.5t83 228.5q35 158 35 172l25 385v25q0 47 15 72.5t32 25.5q11 0 18.5 -10.5t7.5 -28.5q-15 -412 -42.5 -575.5t-114.5 -352.5l-64 -139q-37 -86 -37 -168q0 -57 24.5 -93t78.5 -36q32 0 55 13.5t35 32t21.5 37.5t20.5 32.5t25 13.5 q22 0 35 -16v-15q0 -66 -60.5 -106.5t-127.5 -40.5q-95 0 -139 45t-44 123zM297 1671q0 29 43 29q41 0 41 -27q0 -7 -9 -17.5t-16 -10.5h-43q-7 0 -11.5 10t-4.5 16z" />
<glyph unicode="&#xc0;" horiz-adv-x="657" d="M61 1077q0 24 43 29q24 4 78 4l4 6l84 451q3 8 6.5 26.5t6.5 29.5t13.5 20.5t27.5 9.5q22 0 37 -16.5t20 -31t12 -42.5l78 -445l10 -8h97q8 0 13 -9t5 -18q0 -34 -57 -34h-15q-14 0 -43 -5l97 -1015v-9q0 -12 -9.5 -18.5t-17.5 -7t-23 -0.5h-16l-14 14l-101 1024 q0 1 1 5.5t1 6.5q0 7 -4 7l-139 -9l-92 -1001q-3 -23 -41 -23q-24 0 -33 11v49q0 19 3 54t3 52l80 863h-86q-9 0 -19 10t-10 20zM190 1950q0 14 16.5 25.5t31.5 11.5q9 0 14 -5l209 -153q2 -5 6 -23q0 -12 -15.5 -20t-31.5 -8zM268 1110q94 0 117 6q2 0 6 4l-63 404z" />
<glyph unicode="&#xc1;" horiz-adv-x="657" d="M61 1077q0 24 43 29q24 4 78 4l4 6l84 451q3 8 6.5 26.5t6.5 29.5t13.5 20.5t27.5 9.5q22 0 37 -16.5t20 -31t12 -42.5l78 -445l10 -8h97q8 0 13 -9t5 -18q0 -34 -57 -34h-15q-14 0 -43 -5l97 -1015v-9q0 -12 -9.5 -18.5t-17.5 -7t-23 -0.5h-16l-14 14l-101 1024 q0 1 1 5.5t1 6.5q0 7 -4 7l-139 -9l-92 -1001q-3 -23 -41 -23q-24 0 -33 11v49q0 19 3 54t3 52l80 863h-86q-9 0 -19 10t-10 20zM190 1806q3 15 7 23l209 153q5 5 14 5q15 0 31 -11.5t16 -25.5l-229 -172q-16 0 -32 8t-16 20zM268 1110q94 0 117 6q2 0 6 4l-63 404z" />
<glyph unicode="&#xc2;" horiz-adv-x="657" d="M61 1077q0 24 43 29q24 4 78 4l4 6l84 451q3 8 6.5 26.5t6.5 29.5t13.5 20.5t27.5 9.5q22 0 37 -16.5t20 -31t12 -42.5l78 -445l10 -8h97q8 0 13 -9t5 -18q0 -34 -57 -34h-15q-14 0 -43 -5l97 -1015v-9q0 -12 -9.5 -18.5t-17.5 -7t-23 -0.5h-16l-14 14l-101 1024 q0 1 1 5.5t1 6.5q0 7 -4 7l-139 -9l-92 -1001q-3 -23 -41 -23q-24 0 -33 11v49q0 19 3 54t3 52l80 863h-86q-9 0 -19 10t-10 20zM131 1810q0 1 1 3.5t1 3.5q21 46 91 130.5t108 84.5l18 -2q10 -4 24.5 -22t30.5 -42.5t19 -28.5l100 -133l2 -10q0 -24 -31 -28t-40 16l-41 59 q-58 79 -86 111q-7 0 -35 -35.5t-29 -36.5l-61 -88q-10 -10 -27 -10q-45 0 -45 28zM268 1110q94 0 117 6q2 0 6 4l-63 404z" />
<glyph unicode="&#xc3;" horiz-adv-x="657" d="M61 1077q0 24 43 29q24 4 78 4l4 6l84 451q3 8 6.5 26.5t6.5 29.5t13.5 20.5t27.5 9.5q22 0 37 -16.5t20 -31t12 -42.5l78 -445l10 -8h97q8 0 13 -9t5 -18q0 -34 -57 -34h-15q-14 0 -43 -5l97 -1015v-9q0 -12 -9.5 -18.5t-17.5 -7t-23 -0.5h-16l-14 14l-101 1024 q0 1 1 5.5t1 6.5q0 7 -4 7l-139 -9l-92 -1001q-3 -23 -41 -23q-24 0 -33 11v49q0 19 3 54t3 52l80 863h-86q-9 0 -19 10t-10 20zM80 1841q0 56 35.5 100t93.5 50h14q39 0 68.5 -16.5t47 -40t31 -47t28.5 -40t32 -16.5q68 5 68 104q0 7 -1 21t-1 20q4 15 12 15l47 4 q9 0 14.5 -13t5.5 -24q0 -4 1.5 -13.5t1.5 -13.5q0 -62 -37.5 -105.5t-104.5 -49.5h-8q-28 0 -54 16.5t-45.5 40t-37.5 47.5t-36.5 40.5t-35.5 16.5q-19 -1 -36.5 -22t-20.5 -43l-12 -68q-8 -13 -27 -16q-30 0 -41 16zM268 1110q94 0 117 6q2 0 6 4l-63 404z" />
<glyph unicode="&#xc4;" horiz-adv-x="657" d="M61 1077q0 24 43 29q24 4 78 4l4 6l84 451q3 8 6.5 26.5t6.5 29.5t13.5 20.5t27.5 9.5q22 0 37 -16.5t20 -31t12 -42.5l78 -445l10 -8h97q8 0 13 -9t5 -18q0 -34 -57 -34h-15q-14 0 -43 -5l97 -1015v-9q0 -12 -9.5 -18.5t-17.5 -7t-23 -0.5h-16l-14 14l-101 1024 q0 1 1 5.5t1 6.5q0 7 -4 7l-139 -9l-92 -1001q-3 -23 -41 -23q-24 0 -33 11v49q0 19 3 54t3 52l80 863h-86q-9 0 -19 10t-10 20zM145 1829q0 31 16 44t38 13q47 0 47 -57q0 -49 -39 -49q-24 0 -43 11.5t-19 37.5zM268 1110q94 0 117 6q2 0 6 4l-63 404zM412 1847 q0 32 11.5 44t37.5 12q18 0 34.5 -12.5t16.5 -41.5q0 -25 -16 -37t-33 -12q-24 0 -37.5 9.5t-13.5 37.5z" />
<glyph unicode="&#xc5;" horiz-adv-x="657" d="M61 1077q0 24 43 29q24 4 78 4l4 6l84 451q2 7 6 24.5t5 20.5q-63 11 -100.5 51.5t-37.5 105.5q0 86 68.5 146.5t155.5 60.5q61 0 99 -56t38 -128q0 -65 -34.5 -113t-92.5 -65q30 -121 94 -496l10 -8h97q8 0 13 -9t5 -18q0 -34 -57 -34h-15q-14 0 -43 -5l97 -1015v-9 q0 -12 -9.5 -18.5t-17.5 -7t-23 -0.5h-16l-14 14l-101 1024q0 1 1 5.5t1 6.5q0 7 -4 7l-139 -9l-92 -1001q-3 -23 -41 -23q-24 0 -33 11v49q0 19 3 54t3 52l80 863h-86q-9 0 -19 10t-10 20zM219 1767q0 -42 31.5 -75t73.5 -33q51 0 78.5 42.5t27.5 94.5q0 44 -21 87.5 t-63 43.5q-46 0 -86.5 -52.5t-40.5 -107.5zM268 1110q94 0 117 6q2 0 6 4l-63 404z" />
<glyph unicode="&#xc6;" horiz-adv-x="964" d="M61 1077q0 24 43 29q24 4 78 4l4 6l95 498q0 15 8 20q11 19 35 19q55 0 174 11t188 11h25q22 -7 22 -28q0 -9 -12 -20t-21 -11l-311 -19q-6 -4 -8 -4l37 -452q0 -27 10 -27q21 0 71.5 8t90.5 8q12 -6 12 -20q0 -24 -43 -34t-86 -15.5t-43 -16.5l84 -958q0 -23 10 -23 q12 0 151 27t185 27h8q35 0 35 -25v-10q-9 -17 -20 -23l-420 -59h-31q-14 9 -14 23q0 8 10 17.5t10 18.5l-71 990l-111 -7l-92 -1001q-3 -23 -41 -23q-24 0 -33 11v49q0 19 3 54t3 52l80 863h-86q-9 0 -19 10t-10 20zM268 1110h94l-34 414z" />
<glyph unicode="&#xc7;" horiz-adv-x="710" d="M61 831q0 150 17 282t53.5 246.5t102.5 181.5t155 67q79 0 132.5 -55.5t80.5 -137.5q0 -13 -12.5 -24t-26.5 -11q-35 0 -43 17q-2 8 -18 48t-17 44q-9 23 -38 44t-54 21q-76 0 -130 -67.5t-81.5 -182.5t-39 -235.5t-11.5 -257.5v-61q11 -656 295 -656q35 0 60.5 28.5 t39 68.5t21.5 96t10 98t4 88v8q0 30 8.5 46t36.5 16q43 0 43 -29v-8q-7 -136 -29.5 -233.5t-57.5 -151t-75.5 -77.5t-89.5 -24q-23 0 -41 3q-12 -32 -12 -48q0 -28 18.5 -40.5t45.5 -16.5t54 -10.5t45.5 -30t18.5 -67.5t-13 -75t-32 -48.5t-52 -26.5t-62 -11.5t-72 -2.5 l-31 2q-2 1 -7.5 4t-7 4t-4.5 4.5t-4 7t-1 8.5t4.5 9.5t13.5 8.5l8 5h33t32.5 0.5t28 2t26.5 4.5t21.5 8.5t19 14t12.5 20t9.5 28t2.5 37.5q0 34 -28 49.5t-67 15.5q-78 17 -82 49v23q0 61 9 96q-46 24 -82 71t-59 98.5t-39 125t-24 130t-12.5 136t-5 120t-0.5 103.5z" />
<glyph unicode="&#xc8;" horiz-adv-x="745" d="M61 1616q0 13 6 21.5t18 12t20.5 5t24 2t17.5 0.5q24 2 79 7.5t83 7.5t72.5 4.5t85.5 2.5h25q22 -7 22 -28q0 -9 -12 -20t-21 -11l-286 -18q-7 -5 -9 -5v-12q0 -17 4.5 -52t4.5 -52l38 -686q0 -27 11 -27q25 0 68 8t65 8h29q12 -6 12 -20q0 -24 -43 -34t-86 -15.5 t-43 -16.5v-75l49 -533q0 -22 10 -22q12 0 151 26.5t185 26.5h8q35 0 35 -25v-10q-9 -17 -20 -23l-420 -59h-31q-14 9 -14 23q0 8 10 17.5t10 18.5l-110 1516q0 11 -24 17t-24 20zM147 1921q0 14 16.5 25.5t31.5 11.5q10 0 14 -4l209 -154q3 -5 6 -22q0 -12 -15.5 -20.5 t-31.5 -8.5z" />
<glyph unicode="&#xc9;" horiz-adv-x="745" d="M61 1616q0 13 6 21.5t18 12t20.5 5t24 2t17.5 0.5q24 2 79 7.5t83 7.5t72.5 4.5t85.5 2.5h25q22 -7 22 -28q0 -9 -12 -20t-21 -11l-286 -18q-7 -5 -9 -5v-12q0 -17 4.5 -52t4.5 -52l38 -686q0 -27 11 -27q25 0 68 8t65 8h29q12 -6 12 -20q0 -24 -43 -34t-86 -15.5 t-43 -16.5v-75l49 -533q0 -22 10 -22q12 0 151 26.5t185 26.5h8q35 0 35 -25v-10q-9 -17 -20 -23l-420 -59h-31q-14 9 -14 23q0 8 10 17.5t10 18.5l-110 1516q0 11 -24 17t-24 20zM135 1749q4 18 6 23l209 153q4 4 15 4q15 0 31 -11.5t16 -25.5l-230 -172q-16 0 -31.5 8.5 t-15.5 20.5z" />
<glyph unicode="&#xca;" horiz-adv-x="745" d="M61 1616q0 13 6 21.5t18 12t20.5 5t24 2t17.5 0.5q24 2 79 7.5t83 7.5t72.5 4.5t85.5 2.5h25q22 -7 22 -28q0 -9 -12 -20t-21 -11l-286 -18q-7 -5 -9 -5v-12q0 -17 4.5 -52t4.5 -52l38 -686q0 -27 11 -27q25 0 68 8t65 8h29q12 -6 12 -20q0 -24 -43 -34t-86 -15.5 t-43 -16.5v-75l49 -533q0 -22 10 -22q12 0 151 26.5t185 26.5h8q35 0 35 -25v-10q-9 -17 -20 -23l-420 -59h-31q-14 9 -14 23q0 8 10 17.5t10 18.5l-110 1516q0 11 -24 17t-24 20zM88 1794q0 1 1 3t1 3q21 46 91 130.5t108 84.5l18 -2q10 -4 24.5 -21.5t30.5 -42t19 -28.5 l100 -133l2 -10q0 -24 -31 -28.5t-40 15.5l-41 60q-53 73 -86 110q-7 0 -35 -35t-29 -36l-61 -88q-11 -11 -27 -11q-45 0 -45 29z" />
<glyph unicode="&#xcb;" horiz-adv-x="745" d="M61 1616q0 13 6 21.5t18 12t20.5 5t24 2t17.5 0.5q24 2 79 7.5t83 7.5t72.5 4.5t85.5 2.5h25q22 -7 22 -28q0 -9 -12 -20t-21 -11l-286 -18q-7 -5 -9 -5v-12q0 -17 4.5 -52t4.5 -52l38 -686q0 -27 11 -27q25 0 68 8t65 8h29q12 -6 12 -20q0 -24 -43 -34t-86 -15.5 t-43 -16.5v-75l49 -533q0 -22 10 -22q12 0 151 26.5t185 26.5h8q35 0 35 -25v-10q-9 -17 -20 -23l-420 -59h-31q-14 9 -14 23q0 8 10 17.5t10 18.5l-110 1516q0 11 -24 17t-24 20zM78 1821q0 57 53 57q47 0 47 -57q0 -49 -39 -49q-24 0 -42.5 11.5t-18.5 37.5zM344 1839 q0 32 11.5 43.5t37.5 11.5q18 0 34.5 -12t16.5 -41q0 -25 -16 -37t-33 -12q-24 0 -37.5 9.5t-13.5 37.5z" />
<glyph unicode="&#xcc;" horiz-adv-x="288" d="M6 1950q0 14 16 25.5t31 11.5q10 0 15 -5l208 -153q4 -8 7 -23q0 -12 -15.5 -20t-31.5 -8zM61 1573q3 16 18.5 23.5t33.5 7.5q25 0 30 -19q0 -10 -1 -29.5t-1 -29.5q0 -63 9.5 -178t11.5 -148q3 -45 6 -145.5t11.5 -237t25.5 -317.5v-15q2 -43 8.5 -144t10 -177t3.5 -146 v-20q-14 -23 -51 -23q-22 0 -22 15l-91 1491v26q0 46 -2 66z" />
<glyph unicode="&#xcd;" horiz-adv-x="288" d="M6 1806q4 18 6 23l209 153q5 5 15 5q15 0 31 -11.5t16 -25.5l-230 -172q-16 0 -31.5 8t-15.5 20zM61 1573q3 16 18.5 23.5t33.5 7.5q25 0 30 -19q0 -10 -1 -29.5t-1 -29.5q0 -63 9.5 -178t11.5 -148q3 -45 6 -145.5t11.5 -237t25.5 -317.5v-15q2 -43 8.5 -144t10 -177 t3.5 -146v-20q-14 -23 -51 -23q-22 0 -22 15l-91 1491v26q0 46 -2 66z" />
<glyph unicode="&#xce;" horiz-adv-x="288" d="M-53 1810q0 1 1 3.5t1 3.5q21 47 90.5 131t107.5 84l19 -2q10 -4 24.5 -22t30.5 -42.5t19 -28.5l100 -133l2 -10q0 -24 -31.5 -28t-40.5 16l-41 59q-58 79 -86 111q-7 0 -34.5 -35.5t-28.5 -36.5l-62 -88q-10 -10 -26 -10q-45 0 -45 28zM61 1573q3 16 18.5 23.5t33.5 7.5 q25 0 30 -19q0 -10 -1 -29.5t-1 -29.5q0 -63 9.5 -178t11.5 -148q3 -45 6 -145.5t11.5 -237t25.5 -317.5v-15q2 -43 8.5 -144t10 -177t3.5 -146v-20q-14 -23 -51 -23q-22 0 -22 15l-91 1491v26q0 46 -2 66z" />
<glyph unicode="&#xcf;" horiz-adv-x="288" d="M-39 1829q0 57 53 57q47 0 47 -57q0 -49 -38 -49q-24 0 -43 11.5t-19 37.5zM61 1573q3 16 18.5 23.5t33.5 7.5q25 0 30 -19q0 -10 -1 -29.5t-1 -29.5q0 -63 9.5 -178t11.5 -148q3 -45 6 -145.5t11.5 -237t25.5 -317.5v-15q2 -43 8.5 -144t10 -177t3.5 -146v-20 q-14 -23 -51 -23q-22 0 -22 15l-91 1491v26q0 46 -2 66zM227 1847q0 32 11.5 44t37.5 12q18 0 35 -12.5t17 -41.5q0 -25 -16 -37t-33 -12q-24 0 -38 9.5t-14 37.5z" />
<glyph unicode="&#xd1;" horiz-adv-x="823" d="M61 1540q0 25 12 36t40 11q22 0 37 -22q17 -28 32 -64t23 -58.5t23 -70.5t20 -63q2 -7 38 -107q132 -367 330 -921q5 25 5 55v43l59 1132v9q3 31 11.5 41t41.5 10q10 0 15.5 -12.5t5.5 -24.5l-60 -1487q-2 -31 -47 -31h-16q-12 8 -15 19q-7 29 -19.5 63t-43.5 118.5 t-66 184.5l-342 977q-4 -18 -4 -47v-31q25 -819 25 -1177v-107q-8 -11 -16 -13.5t-27 -2.5h-14l-9 10q-4 0 -4 45q-1 3 -2 39t-2 85.5t-2 68.5v18l-24 1080q0 33 -2.5 97t-2.5 97zM162 1841q0 56 35.5 100t93.5 50h14q39 0 68.5 -16.5t47 -40t31 -47t28.5 -40t32 -16.5 q68 5 68 104q0 7 -1 21t-1 20q4 15 12 15l47 4q9 0 14.5 -13t5.5 -24q0 -4 1 -13.5t1 -13.5q0 -62 -37 -105.5t-104 -49.5h-8q-28 0 -54 16.5t-45.5 40t-37.5 47.5t-36.5 40.5t-35.5 16.5q-19 -1 -36.5 -22t-20.5 -43l-13 -68q-8 -13 -26 -16q-30 0 -41 16z" />
<glyph unicode="&#xd2;" horiz-adv-x="862" d="M61 856q0 156 25 297.5t73.5 255.5t127.5 182t178 68q91 0 156 -50.5t104.5 -149.5t57.5 -233.5t18 -312.5q0 -124 -9 -242.5t-33.5 -244.5t-62 -219.5t-100.5 -154.5t-143 -62h-31q-79 0 -142.5 52t-103.5 136.5t-66.5 199t-37.5 233t-11 245.5zM141 805 q0 -147 19 -280.5t55.5 -241.5t95 -172t131.5 -64q66 0 120 74t88 195.5t52.5 270.5t18.5 306q0 150 -15 275.5t-45 224.5t-81 155t-119 56q-77 0 -139.5 -69t-101 -183t-59 -255t-20.5 -292zM293 1950q0 14 16 25.5t31 11.5q9 0 14 -5l209 -153q2 -5 6 -23q0 -12 -15.5 -20 t-31.5 -8z" />
<glyph unicode="&#xd3;" horiz-adv-x="862" d="M61 856q0 156 25 297.5t73.5 255.5t127.5 182t178 68q91 0 156 -50.5t104.5 -149.5t57.5 -233.5t18 -312.5q0 -124 -9 -242.5t-33.5 -244.5t-62 -219.5t-100.5 -154.5t-143 -62h-31q-79 0 -142.5 52t-103.5 136.5t-66.5 199t-37.5 233t-11 245.5zM141 805 q0 -147 19 -280.5t55.5 -241.5t95 -172t131.5 -64q66 0 120 74t88 195.5t52.5 270.5t18.5 306q0 150 -15 275.5t-45 224.5t-81 155t-119 56q-77 0 -139.5 -69t-101 -183t-59 -255t-20.5 -292zM293 1806q4 18 6 23l209 153q5 5 14 5q15 0 31 -11.5t16 -25.5l-229 -172 q-16 0 -31.5 8t-15.5 20z" />
<glyph unicode="&#xd4;" horiz-adv-x="862" d="M61 856q0 156 25 297.5t73.5 255.5t127.5 182t178 68q91 0 156 -50.5t104.5 -149.5t57.5 -233.5t18 -312.5q0 -124 -9 -242.5t-33.5 -244.5t-62 -219.5t-100.5 -154.5t-143 -62h-31q-79 0 -142.5 52t-103.5 136.5t-66.5 199t-37.5 233t-11 245.5zM141 805 q0 -147 19 -280.5t55.5 -241.5t95 -172t131.5 -64q66 0 120 74t88 195.5t52.5 270.5t18.5 306q0 150 -15 275.5t-45 224.5t-81 155t-119 56q-77 0 -139.5 -69t-101 -183t-59 -255t-20.5 -292zM233 1810q0 1 1.5 3.5t1.5 3.5q21 47 90.5 131t107.5 84l19 -2q10 -4 24.5 -22 t30 -42.5t18.5 -28.5l101 -133l2 -10q0 -24 -31.5 -28t-40.5 16l-41 59q-58 79 -86 111q-7 0 -34.5 -35.5t-28.5 -36.5l-62 -88q-10 -10 -26 -10q-46 0 -46 28z" />
<glyph unicode="&#xd5;" horiz-adv-x="862" d="M61 856q0 156 25 297.5t73.5 255.5t127.5 182t178 68q91 0 156 -50.5t104.5 -149.5t57.5 -233.5t18 -312.5q0 -124 -9 -242.5t-33.5 -244.5t-62 -219.5t-100.5 -154.5t-143 -62h-31q-79 0 -142.5 52t-103.5 136.5t-66.5 199t-37.5 233t-11 245.5zM141 805 q0 -147 19 -280.5t55.5 -241.5t95 -172t131.5 -64q66 0 120 74t88 195.5t52.5 270.5t18.5 306q0 150 -15 275.5t-45 224.5t-81 155t-119 56q-77 0 -139.5 -69t-101 -183t-59 -255t-20.5 -292zM182 1841q0 56 35.5 100t93.5 50h15q47 0 81.5 -25t50 -55t35 -55t39.5 -25 q68 5 68 104q0 7 -1 21t-1 20q4 15 12 15l47 4q9 0 15 -13.5t6 -23.5q0 -4 1 -13.5t1 -13.5q0 -62 -37 -105.5t-104 -49.5h-9q-34 0 -66 25t-52.5 55.5t-45 55.5t-44.5 25q-19 -1 -37 -22.5t-21 -42.5l-12 -68q-8 -13 -27 -16q-30 0 -41 16z" />
<glyph unicode="&#xd6;" horiz-adv-x="862" d="M61 856q0 156 25 297.5t73.5 255.5t127.5 182t178 68q91 0 156 -50.5t104.5 -149.5t57.5 -233.5t18 -312.5q0 -124 -9 -242.5t-33.5 -244.5t-62 -219.5t-100.5 -154.5t-143 -62h-31q-79 0 -142.5 52t-103.5 136.5t-66.5 199t-37.5 233t-11 245.5zM141 805 q0 -147 19 -280.5t55.5 -241.5t95 -172t131.5 -64q66 0 120 74t88 195.5t52.5 270.5t18.5 306q0 150 -15 275.5t-45 224.5t-81 155t-119 56q-77 0 -139.5 -69t-101 -183t-59 -255t-20.5 -292zM248 1829q0 57 53 57q47 0 47 -57q0 -49 -39 -49q-24 0 -42.5 11.5t-18.5 37.5z M514 1847q0 32 11.5 44t37.5 12q18 0 34.5 -12.5t16.5 -41.5q0 -25 -16 -37t-33 -12q-24 0 -37.5 9.5t-13.5 37.5z" />
<glyph unicode="&#xd8;" horiz-adv-x="833" d="M61 780v54q9 189 34 339.5t85 290.5q35 84 116.5 137.5t172.5 53.5q55 0 94 -10q13 10 37 10q37 0 37 -29l-4 -20q64 -59 101 -214t38 -401v-104q0 -73 -1 -131.5t-5 -134.5t-11.5 -136.5t-20 -128t-30.5 -118.5t-44 -99.5t-58.5 -79.5t-77 -50t-96.5 -19h-10 q-78 0 -139 45q-4 -14 -18 -22.5t-30 -8.5q-36 0 -36 12l18 82q-47 63 -80 158t-47 197t-19.5 178.5t-5.5 148.5zM147 805q0 -75 4 -158t26 -217.5t59 -222.5l307 1378q-43 17 -84 17q-60 0 -110 -40.5t-81 -98.5t-55 -137t-35 -139.5t-18 -123.5q-13 -149 -13 -197v-61z M295 109q52 -62 123 -62q270 0 270 789v41q-1 214 -23 396t-53 245z" />
<glyph unicode="&#xd9;" d="M61 750q0 192 16.5 499t16.5 367q3 39 47 39q25 0 33 -13q0 -149 -18.5 -461t-18.5 -481q0 -651 197 -651q211 0 211 1051q0 113 -3 258t-3 160v75q7 27 45 27q41 0 41 -27v-139q0 -20 1 -94t1 -141q-7 -298 -17.5 -499.5t-32.5 -340.5t-44 -214t-67.5 -114.5t-85.5 -48 t-114 -8.5q-205 38 -205 756zM205 1950q0 14 16 25.5t31 11.5q9 0 14 -5l209 -153q2 -5 6 -23q0 -12 -15.5 -20t-31.5 -8z" />
<glyph unicode="&#xda;" d="M61 750q0 192 16.5 499t16.5 367q3 39 47 39q25 0 33 -13q0 -149 -18.5 -461t-18.5 -481q0 -651 197 -651q211 0 211 1051q0 113 -3 258t-3 160v75q7 27 45 27q41 0 41 -27v-139q0 -20 1 -94t1 -141q-7 -298 -17.5 -499.5t-32.5 -340.5t-44 -214t-67.5 -114.5t-85.5 -48 t-114 -8.5q-205 38 -205 756zM205 1806q4 18 6 23l209 153q5 5 14 5q15 0 31 -11.5t16 -25.5l-229 -172q-16 0 -31.5 8t-15.5 20z" />
<glyph unicode="&#xdb;" d="M61 750q0 192 16.5 499t16.5 367q3 39 47 39q25 0 33 -13q0 -149 -18.5 -461t-18.5 -481q0 -651 197 -651q211 0 211 1051q0 113 -3 258t-3 160v75q7 27 45 27q41 0 41 -27v-139q0 -20 1 -94t1 -141q-7 -298 -17.5 -499.5t-32.5 -340.5t-44 -214t-67.5 -114.5t-85.5 -48 t-114 -8.5q-205 38 -205 756zM145 1810q0 1 1 3.5t1 3.5q21 46 91 130.5t108 84.5l19 -2q10 -4 24.5 -22t30 -42.5t18.5 -28.5l101 -133l2 -10q0 -24 -31.5 -28t-40.5 16l-41 59q-58 79 -86 111q-7 0 -34.5 -35.5t-28.5 -36.5l-62 -88q-10 -10 -27 -10q-45 0 -45 28z" />
<glyph unicode="&#xdc;" d="M61 750q0 192 16.5 499t16.5 367q3 39 47 39q25 0 33 -13q0 -149 -18.5 -461t-18.5 -481q0 -651 197 -651q211 0 211 1051q0 113 -3 258t-3 160v75q7 27 45 27q41 0 41 -27v-139q0 -20 1 -94t1 -141q-7 -298 -17.5 -499.5t-32.5 -340.5t-44 -214t-67.5 -114.5t-85.5 -48 t-114 -8.5q-205 38 -205 756zM160 1829q0 57 53 57q47 0 47 -57q0 -49 -39 -49q-24 0 -42.5 11.5t-18.5 37.5zM426 1847q0 32 11.5 44t37.5 12q18 0 34.5 -12.5t16.5 -41.5q0 -25 -16 -37t-33 -12q-24 0 -37.5 9.5t-13.5 37.5z" />
<glyph unicode="&#xdd;" d="M61 1565v28q0 13 31 13q26 0 35 -10.5t14 -39.5l23 -120l139 -559l221 659l17 57q15 49 43 49q14 0 28.5 -7t14.5 -19t-8 -29.5t-9 -21.5q-5 -22 -12 -44.5t-25.5 -76.5t-44.5 -126.5t-79 -228.5t-117 -348l-2 -100q0 -11 -2 -79t-4 -193.5t-2 -276.5v-74q4 -4 4 -22 q0 -11 -18 -17t-32 -6q-15 0 -21.5 7t-7.5 14.5t-1 25.5l14 719v9l-168 682q-7 22 -19 75t-12 60zM205 1806q4 18 6 23l209 153q5 5 14 5q15 0 31 -11.5t16 -25.5l-229 -172q-16 0 -31.5 8t-15.5 20z" />
<glyph unicode="&#xdf;" horiz-adv-x="829" d="M61 834q0 333 29 546q32 137 86.5 215t126.5 78q71 0 124.5 -42t53.5 -111q0 -73 -28 -152q-7 -20 -23.5 -52t-26.5 -59.5t-10 -54.5v-8q3 -55 24.5 -103t54.5 -86t72 -76.5t77.5 -85t71 -101t53 -135.5t22.5 -179v-10q0 -90 -32 -175t-100.5 -145.5t-158.5 -60.5 q-5 0 -22 1l-17 1q-33 0 -45 4q-5 0 -35 10q-24 10 -24 23q0 28 43 28q16 0 49.5 -8t52.5 -8q36 0 63 16.5t62 49.5q52 49 71 110.5t19 145.5q0 210 -119 387q-24 25 -71.5 69.5t-72.5 71t-55 67.5t-43.5 85.5t-13.5 97.5q0 59 42 168t42 170q0 37 -23.5 63.5t-55.5 26.5 q-20 0 -41 -12q-52 -34 -77.5 -89t-37.5 -131q-31 -192 -31 -542q0 -386 6 -574q0 -11 6.5 -118.5t6.5 -120.5q1 -6 4.5 -28t3.5 -34q0 -14 -13.5 -21t-29.5 -7h-19q-13 10 -16 34q-25 445 -25 861z" />
<glyph unicode="&#xe0;" horiz-adv-x="587" d="M61 948q0 18 20.5 26t41 9.5t20.5 3.5l56 498q2 8 6.5 40.5t9.5 54t19 41t34 19.5q22 0 32 -12t17 -37q9 -54 117 -567q2 -20 29 -20h26q17 -17 17 -29q0 -5 -8.5 -18t-12.5 -13h-34l-5 -8l82 -895q0 -23 -47 -23h-14l-10 11l-74 831l-10 76l-11 8l-133 -16q-12 0 -16 -8 l-45 -844v-53q0 -4 -6.5 -12.5t-9.5 -8.5h-48q-2 0 -12 10v27l45 866q0 8 -10 10q-66 6 -66 33zM156 1919q0 14 16 25.5t31 11.5q10 0 14 -4l209 -154q3 -5 6 -22q0 -12 -15.5 -20.5t-31.5 -8.5zM221 991l137 21v8l-90 516q-5 -56 -18.5 -169t-21 -204t-7.5 -172z" />
<glyph unicode="&#xe1;" horiz-adv-x="587" d="M61 948q0 18 20.5 26t41 9.5t20.5 3.5l56 498q2 8 6.5 40.5t9.5 54t19 41t34 19.5q22 0 32 -12t17 -37q9 -54 117 -567q2 -20 29 -20h26q17 -17 17 -29q0 -5 -8.5 -18t-12.5 -13h-34l-5 -8l82 -895q0 -23 -47 -23h-14l-10 11l-74 831l-10 76l-11 8l-133 -16q-12 0 -16 -8 l-45 -844v-53q0 -4 -6.5 -12.5t-9.5 -8.5h-48q-2 0 -12 10v27l45 866q0 8 -10 10q-66 6 -66 33zM156 1776q3 17 6 22l209 154q4 4 14 4q15 0 31 -11.5t16 -25.5l-229 -172q-16 0 -31.5 8.5t-15.5 20.5zM221 991l137 21v8l-90 516q-5 -56 -18.5 -169t-21 -204t-7.5 -172z" />
<glyph unicode="&#xe2;" horiz-adv-x="587" d="M61 948q0 18 20.5 26t41 9.5t20.5 3.5l56 498q2 8 6.5 40.5t9.5 54t19 41t34 19.5q22 0 32 -12t17 -37q9 -54 117 -567q2 -20 29 -20h26q17 -17 17 -29q0 -5 -8.5 -18t-12.5 -13h-34l-5 -8l82 -895q0 -23 -47 -23h-14l-10 11l-74 831l-10 76l-11 8l-133 -16q-12 0 -16 -8 l-45 -844v-53q0 -4 -6.5 -12.5t-9.5 -8.5h-48q-2 0 -12 10v27l45 866q0 8 -10 10q-66 6 -66 33zM96 1780q0 1 1 3t1 3q21 46 91 130.5t108 84.5l18 -2q10 -4 24.5 -21.5t30.5 -42t19 -28.5l100 -133l3 -11q0 -24 -31.5 -28t-40.5 16l-41 59q-58 79 -86 111q-7 0 -35 -35.5 t-29 -36.5l-61 -88q-10 -10 -27 -10q-45 0 -45 29zM221 991l137 21v8l-90 516q-5 -56 -18.5 -169t-21 -204t-7.5 -172z" />
<glyph unicode="&#xe3;" horiz-adv-x="587" d="M45 1810q0 56 35.5 100t93.5 50h14q39 0 68.5 -16.5t47 -40t31 -47t28.5 -40t32 -16.5q68 5 68 105q0 7 -1 21t-1 20q3 14 12 14l47 4q9 0 15 -13.5t6 -23.5q0 -4 1 -13t1 -13q0 -62 -37.5 -106t-104.5 -50h-8q-34 0 -66.5 25.5t-53 55.5t-45 55.5t-44.5 25.5 q-19 -1 -36.5 -22.5t-20.5 -43.5l-12 -67q-8 -14 -27 -17q-29 0 -41 17zM61 948q0 18 20.5 26t41 9.5t20.5 3.5l56 498q2 8 6.5 40.5t9.5 54t19 41t34 19.5q22 0 32 -12t17 -37q9 -54 117 -567q2 -20 29 -20h26q17 -17 17 -29q0 -5 -8.5 -18t-12.5 -13h-34l-5 -8l82 -895 q0 -23 -47 -23h-14l-10 11l-74 831l-10 76l-11 8l-133 -16q-12 0 -16 -8l-45 -844v-53q0 -4 -6.5 -12.5t-9.5 -8.5h-48q-2 0 -12 10v27l45 866q0 8 -10 10q-66 6 -66 33zM221 991l137 21v8l-90 516q-5 -56 -18.5 -169t-21 -204t-7.5 -172z" />
<glyph unicode="&#xe4;" horiz-adv-x="587" d="M61 948q0 18 20.5 26t41 9.5t20.5 3.5l56 498q2 8 6.5 40.5t9.5 54t19 41t34 19.5q22 0 32 -12t17 -37q9 -54 117 -567q2 -20 29 -20h26q17 -17 17 -29q0 -5 -8.5 -18t-12.5 -13h-34l-5 -8l82 -895q0 -23 -47 -23h-14l-10 11l-74 831l-10 76l-11 8l-133 -16q-12 0 -16 -8 l-45 -844v-53q0 -4 -6.5 -12.5t-9.5 -8.5h-48q-2 0 -12 10v27l45 866q0 8 -10 10q-66 6 -66 33zM111 1798q0 57 53 57q47 0 47 -57q0 -49 -39 -49q-24 0 -42.5 11.5t-18.5 37.5zM221 991l137 21v8l-90 516q-5 -56 -18.5 -169t-21 -204t-7.5 -172zM377 1817q0 32 11.5 43.5 t37.5 11.5q18 0 34.5 -12t16.5 -41q0 -25 -16 -37.5t-33 -12.5q-51 0 -51 48z" />
<glyph unicode="&#xe5;" horiz-adv-x="587" d="M61 948q0 18 20.5 26t41 9.5t20.5 3.5l56 498q1 4 7.5 48t14.5 66q-64 9 -102.5 51t-38.5 109q0 86 68 146.5t155 60.5q61 0 99 -56t38 -128q0 -65 -34.5 -113t-92.5 -65q0 -5 4 -13q9 -54 117 -567q2 -20 29 -20h26q17 -17 17 -29q0 -5 -8.5 -18t-12.5 -13h-34l-5 -8 l82 -895q0 -23 -47 -23h-14l-10 11l-74 831l-10 76l-11 8l-133 -16q-12 0 -16 -8l-45 -844v-53q0 -4 -6.5 -12.5t-9.5 -8.5h-48q-2 0 -12 10v27l45 866q0 8 -10 10q-66 6 -66 33zM156 1757q0 -42 31 -75t73 -33q51 0 79 42.5t28 94.5q0 44 -21 87.5t-63 43.5 q-46 0 -86.5 -52.5t-40.5 -107.5zM221 991l137 21v8l-90 516q-5 -56 -18.5 -169t-21 -204t-7.5 -172z" />
<glyph unicode="&#xe6;" horiz-adv-x="905" d="M61 948q0 18 20.5 26t41 9.5t20.5 3.5l56 498q2 8 6 39.5t8.5 53.5t19 42t37.5 20h9q46 0 385 21q10 0 23 -8.5t13 -18.5q0 -12 -6 -17.5t-20 -10.5q-244 -19 -293 -25.5t-49 -19.5q1 -1 11.5 -101.5t25.5 -231t24 -188.5q0 -6 13 -6q26 0 74 11.5t73 11.5q55 0 55 -31 q0 -27 -14 -27q-35 0 -93.5 -14t-94.5 -14q-9 -6 -9 -21l64 -895l10 -8q3 0 25 4l22 4q12 2 117 11.5t117 11.5q2 0 23 4t24 4h10q11 0 23 -10.5t12 -22.5q0 -23 -41 -28l-260 -25q-93 -20 -170 -23q-37 12 -37 29q0 16 20 28l21 13v31l-47 862l-101 -12q-12 0 -16 -8 l-45 -844v-53q0 -4 -6.5 -12.5t-9.5 -8.5h-48q-2 0 -4 1.5t-5 4t-5 4.5l47 893q0 8 -10 10q-66 6 -66 33zM221 991l107 15l-60 530q-5 -56 -18.5 -169t-21 -204t-7.5 -172z" />
<glyph unicode="&#xe7;" d="M61 782v49q0 135 5 213q0 3 2 17.5t2 17.5q0 5 3 84.5t9 120.5q15 97 49.5 174t97.5 150q42 51 154 51q91 0 172 -88q35 -68 35 -115q0 -35 -37 -35q-26 0 -38.5 21.5t-15.5 49.5t-22 59t-55 46q-18 11 -41 11q-38 0 -69 -17t-53 -48.5t-36 -61t-28 -68.5l-33 -113 q-4 -8 -4 -20l-17 -256v-614q0 -51 7 -99t25 -96t45 -84t71 -58t100 -22h14q69 9 91 33t36 96q5 15 5 27l12 272q0 25 51 25q12 0 20.5 -7.5t8.5 -19.5l-13 -250l-12 -73q-14 -80 -76.5 -119t-148.5 -39q-6 0 -18.5 1t-18.5 1q-14 -42 -14 -55q0 -28 18.5 -41t45.5 -17 t54 -10.5t45.5 -30t18.5 -67.5t-13 -75t-32.5 -48.5t-52.5 -26.5t-62 -11.5t-72 -2.5l-30 2q-2 1 -6.5 3.5t-6 3.5t-5 3.5t-4.5 5t-2 6t-1 7.5q0 5 5 9.5t13 8t9 4.5h37t36.5 0.5t30 3t28.5 7t20.5 13t18 20.5t9 30t4.5 41q0 34 -27.5 49.5t-66.5 15.5q-78 17 -82 50v22 q0 67 6 96q-35 14 -53 27q-8 6 -32.5 29.5t-31.5 31.5q-38 40 -56.5 121.5t-20.5 159.5q-7 219 -7 399z" />
<glyph unicode="&#xe8;" horiz-adv-x="735" d="M61 1589q0 18 31 27l402 24q10 0 23 -8t13 -18q0 -12 -6 -18t-20 -11l-297 -29l22 -598q0 -6 13 -6q26 0 74 11.5t73 11.5q55 0 55 -31q0 -26 -14 -26l-197 -33l58 -850l348 31q11 0 23 -10.5t12 -22.5q0 -24 -41 -29l-430 -47q-37 12 -37 29q0 16 20 28l21 13v30 l-84 1493q-1 5 -16.5 8t-30.5 10t-15 21zM160 1903q0 14 16 25t31 11q10 0 14 -4l209 -153q2 -5 6 -23q0 -12 -15.5 -20t-31.5 -8z" />
<glyph unicode="&#xe9;" horiz-adv-x="735" d="M61 1589q0 18 31 27l402 24q10 0 23 -8t13 -18q0 -12 -6 -18t-20 -11l-297 -29l22 -598q0 -6 13 -6q26 0 74 11.5t73 11.5q55 0 55 -31q0 -26 -14 -26l-197 -33l58 -850l348 31q11 0 23 -10.5t12 -22.5q0 -24 -41 -29l-430 -47q-37 12 -37 29q0 16 20 28l21 13v30 l-84 1493q-1 5 -16.5 8t-30.5 10t-15 21zM123 1739q3 17 6 22l209 154q4 4 14 4q15 0 31 -11.5t16 -25.5l-229 -172q-16 0 -31.5 8.5t-15.5 20.5z" />
<glyph unicode="&#xea;" horiz-adv-x="735" d="M61 1589q0 18 31 27l402 24q10 0 23 -8t13 -18q0 -12 -6 -18t-20 -11l-297 -29l22 -598q0 -6 13 -6q26 0 74 11.5t73 11.5q55 0 55 -31q0 -26 -14 -26l-197 -33l58 -850l348 31q11 0 23 -10.5t12 -22.5q0 -24 -41 -29l-430 -47q-37 12 -37 29q0 16 20 28l21 13v30 l-84 1493q-1 5 -16.5 8t-30.5 10t-15 21zM72 1763q0 1 1 3t1 3q21 47 90.5 131.5t107.5 84.5l19 -3q10 -4 24.5 -21.5t30.5 -42t19 -28.5l100 -133l2 -10q0 -24 -31.5 -28t-40.5 16l-41 59q-58 79 -86 111q-7 0 -34.5 -35.5t-28.5 -36.5l-62 -88q-10 -10 -26 -10 q-45 0 -45 28z" />
<glyph unicode="&#xeb;" horiz-adv-x="735" d="M61 1589q0 18 31 27l402 24q10 0 23 -8t13 -18q0 -12 -6 -18t-20 -11l-297 -29l22 -598q0 -6 13 -6q26 0 74 11.5t73 11.5q55 0 55 -31q0 -26 -14 -26l-197 -33l58 -850l348 31q11 0 23 -10.5t12 -22.5q0 -24 -41 -29l-430 -47q-37 12 -37 29q0 16 20 28l21 13v30 l-84 1493q-1 5 -16.5 8t-30.5 10t-15 21zM102 1790q0 31 16 44t38 13q47 0 47 -57q0 -49 -39 -49q-24 0 -43 11.5t-19 37.5zM369 1808q0 32 11.5 44t37.5 12q18 0 34.5 -12.5t16.5 -41.5q0 -25 -16 -37t-33 -12q-24 0 -37.5 9.5t-13.5 37.5z" />
<glyph unicode="&#xec;" horiz-adv-x="243" d="M-16 1919q0 14 16 25.5t31 11.5q10 0 14 -4l209 -154q3 -5 6 -22q0 -12 -15.5 -20.5t-31.5 -8.5zM61 1442v131q0 16 41 16h9q16 0 20 -8v-53q0 -53 2 -161t2 -161v-47l25 -452v-35q10 -100 20 -430q2 -6 2 -99q0 -78 -2 -94q-11 -14 -17.5 -17t-25.5 -3h-18q-8 2 -8 20 v174z" />
<glyph unicode="&#xed;" horiz-adv-x="243" d="M-16 1776q3 17 6 22l209 154q4 4 14 4q15 0 31 -11.5t16 -25.5l-229 -172q-16 0 -31.5 8.5t-15.5 20.5zM61 1442v131q0 16 41 16h9q16 0 20 -8v-53q0 -53 2 -161t2 -161v-47l25 -452v-35q10 -100 20 -430q2 -6 2 -99q0 -78 -2 -94q-11 -14 -17.5 -17t-25.5 -3h-18 q-8 2 -8 20v174z" />
<glyph unicode="&#xee;" horiz-adv-x="243" d="M-76 1780q0 1 1 3t1 3q21 46 91 130.5t108 84.5l18 -2q10 -4 24.5 -21.5t30.5 -42t19 -28.5l100 -133l2 -11q0 -24 -31 -28t-40 16l-41 59q-58 79 -86 111q-7 0 -35 -35.5t-29 -36.5l-61 -88q-10 -10 -27 -10q-45 0 -45 29zM61 1442v131q0 16 41 16h9q16 0 20 -8v-53 q0 -53 2 -161t2 -161v-47l25 -452v-35q10 -100 20 -430q2 -6 2 -99q0 -78 -2 -94q-11 -14 -17.5 -17t-25.5 -3h-18q-8 2 -8 20v174z" />
<glyph unicode="&#xef;" horiz-adv-x="243" d="M-61 1798q0 57 53 57q47 0 47 -57q0 -49 -39 -49q-24 0 -42.5 11.5t-18.5 37.5zM61 1442v131q0 16 41 16h9q16 0 20 -8v-53q0 -53 2 -161t2 -161v-47l25 -452v-35q10 -100 20 -430q2 -6 2 -99q0 -78 -2 -94q-11 -14 -17.5 -17t-25.5 -3h-18q-8 2 -8 20v174zM205 1817 q0 32 11.5 43.5t37.5 11.5q18 0 34.5 -12t16.5 -41q0 -25 -16 -37.5t-33 -12.5q-51 0 -51 48z" />
<glyph unicode="&#xf1;" horiz-adv-x="819" d="M61 1579q2 23 41 27h15q25 0 57 -59.5t79.5 -189.5t101 -283.5t144 -396t185.5 -472.5l2 1401q0 5 3.5 8.5t9.5 5t11.5 2.5t12.5 1.5t10 0.5h10l15 -10q-2 -647 -2 -1235v-301q0 -2 -1 -11t-1 -14l-2 -24q-30 -27 -58 -29q-5 1 -7.5 4.5t-5 10.5t-3.5 8l-535 1411 l129 -1459q0 -16 -16 -26t-33 -12q-28 0 -28 104l-125 1438q0 17 -4.5 50t-4.5 50zM160 1810q0 56 35.5 100t93.5 50h14q39 0 68.5 -16.5t47 -40t31 -47t28.5 -40t32 -16.5q68 5 68 105q0 7 -1.5 21t-1.5 20q3 14 13 14l47 4q9 0 14.5 -13t5.5 -24q0 -4 1 -13t1 -13 q0 -63 -37 -106.5t-104 -49.5h-8q-34 0 -66.5 25.5t-53 55.5t-45 55.5t-44.5 25.5q-19 -1 -36.5 -22.5t-20.5 -43.5l-13 -67q-8 -14 -26 -17q-29 0 -41 17z" />
<glyph unicode="&#xf2;" horiz-adv-x="788" d="M61 795q0 211 29 374q14 85 42 164t68.5 146.5t97 110.5t120.5 48h10q70 0 128 -70.5t94.5 -186.5t56.5 -260.5t20 -297.5q0 -151 -19.5 -285.5t-57.5 -244.5t-103 -175t-148 -65h-10q-75 0 -133 45t-94 116.5t-59.5 171t-32.5 199.5t-9 210zM123 793q0 -304 80.5 -483 t187.5 -179q104 0 183 168.5t79 476.5v90q0 344 -70.5 526.5t-172.5 182.5q-52 0 -102 -50.5t-92 -144.5t-67.5 -247t-25.5 -340zM256 1919q0 14 16 25.5t31 11.5q10 0 14 -4l209 -154q3 -5 6 -22q0 -12 -15.5 -20.5t-31.5 -8.5z" />
<glyph unicode="&#xf3;" horiz-adv-x="788" d="M61 795q0 211 29 374q14 85 42 164t68.5 146.5t97 110.5t120.5 48h10q70 0 128 -70.5t94.5 -186.5t56.5 -260.5t20 -297.5q0 -151 -19.5 -285.5t-57.5 -244.5t-103 -175t-148 -65h-10q-75 0 -133 45t-94 116.5t-59.5 171t-32.5 199.5t-9 210zM123 793q0 -304 80.5 -483 t187.5 -179q104 0 183 168.5t79 476.5v90q0 344 -70.5 526.5t-172.5 182.5q-52 0 -102 -50.5t-92 -144.5t-67.5 -247t-25.5 -340zM256 1776q3 17 6 22l209 154q4 4 14 4q15 0 31 -11.5t16 -25.5l-229 -172q-16 0 -31.5 8.5t-15.5 20.5z" />
<glyph unicode="&#xf4;" horiz-adv-x="788" d="M61 795q0 211 29 374q14 85 42 164t68.5 146.5t97 110.5t120.5 48h10q70 0 128 -70.5t94.5 -186.5t56.5 -260.5t20 -297.5q0 -151 -19.5 -285.5t-57.5 -244.5t-103 -175t-148 -65h-10q-75 0 -133 45t-94 116.5t-59.5 171t-32.5 199.5t-9 210zM123 793q0 -304 80.5 -483 t187.5 -179q104 0 183 168.5t79 476.5v90q0 344 -70.5 526.5t-172.5 182.5q-52 0 -102 -50.5t-92 -144.5t-67.5 -247t-25.5 -340zM197 1780q0 1 1 3t1 3q21 47 90.5 131t107.5 84l19 -2q10 -4 24.5 -22t30 -42t18.5 -28l101 -133l2 -11q0 -24 -31.5 -28t-40.5 16l-41 59 q-58 79 -86 111q-7 0 -34.5 -35.5t-28.5 -36.5l-62 -88q-10 -10 -26 -10q-45 0 -45 29z" />
<glyph unicode="&#xf5;" horiz-adv-x="788" d="M61 795q0 211 29 374q14 85 42 164t68.5 146.5t97 110.5t120.5 48h10q70 0 128 -70.5t94.5 -186.5t56.5 -260.5t20 -297.5q0 -151 -19.5 -285.5t-57.5 -244.5t-103 -175t-148 -65h-10q-75 0 -133 45t-94 116.5t-59.5 171t-32.5 199.5t-9 210zM123 793q0 -304 80.5 -483 t187.5 -179q104 0 183 168.5t79 476.5v90q0 344 -70.5 526.5t-172.5 182.5q-52 0 -102 -50.5t-92 -144.5t-67.5 -247t-25.5 -340zM145 1810q0 56 35.5 100t93.5 50h15q39 0 68.5 -16.5t47 -40t31 -47t28.5 -40t32 -16.5q67 5 67 105q0 7 -1 21t-1 20q3 14 12 14l48 4 q9 0 14.5 -13t5.5 -24q0 -4 1 -13t1 -13q0 -63 -37 -106.5t-104 -49.5h-8q-34 0 -66.5 25.5t-53 55.5t-45 55.5t-44.5 25.5q-19 -1 -37 -22.5t-21 -43.5l-12 -67q-8 -14 -27 -17q-29 0 -41 17z" />
<glyph unicode="&#xf6;" horiz-adv-x="788" d="M61 795q0 211 29 374q14 85 42 164t68.5 146.5t97 110.5t120.5 48h10q70 0 128 -70.5t94.5 -186.5t56.5 -260.5t20 -297.5q0 -151 -19.5 -285.5t-57.5 -244.5t-103 -175t-148 -65h-10q-75 0 -133 45t-94 116.5t-59.5 171t-32.5 199.5t-9 210zM123 793q0 -304 80.5 -483 t187.5 -179q104 0 183 168.5t79 476.5v90q0 344 -70.5 526.5t-172.5 182.5q-52 0 -102 -50.5t-92 -144.5t-67.5 -247t-25.5 -340zM211 1798q0 57 53 57q47 0 47 -57q0 -49 -39 -49q-24 0 -42.5 11.5t-18.5 37.5zM477 1817q0 32 11.5 43.5t37.5 11.5q19 0 35.5 -12t16.5 -41 q0 -25 -16.5 -37.5t-33.5 -12.5q-51 0 -51 48z" />
<glyph unicode="&#xf8;" horiz-adv-x="731" d="M61 786q0 23 1 96t1 76q0 23 6.5 103.5t10.5 107.5q15 86 43.5 166.5t69.5 149.5t98 111t121 42q4 0 11 -1t11 -1q45 -3 72 -14l2 10q0 1 1 4t1 4q5 16 9 23.5t14 13.5t28 6q37 0 37 -28l-20 -88q32 -45 46 -111t25 -178q21 -190 21 -432q0 -62 -11 -152v-20 q0 -51 -1.5 -97t-8 -111.5t-17.5 -119t-32 -110.5t-49 -95t-71.5 -63t-96.5 -25q-75 0 -137 43l-6 -30q-6 -33 -47 -33q-37 0 -37 12l26 119q-16 21 -30 53q-91 302 -91 569zM135 827q0 -14 0.5 -43t1 -52.5t0.5 -24.5q0 -265 70 -428l282 1275l-28 13q-24 6 -45 6 q-55 0 -100 -35t-73.5 -88t-49.5 -127.5t-32 -141t-17 -141.5t-7.5 -116.5t-1.5 -77.5v-19zM266 186q53 -59 127 -59q44 0 79 33t55 87.5t33 110t18 117.5t6.5 91t1.5 48q0 6 3 61.5t3 61.5v305q-10 160 -17 215q-2 14 -9 85.5t-15 107.5z" />
<glyph unicode="&#xf9;" horiz-adv-x="677" d="M61 670q0 392 80 907q2 14 35 14q43 0 43 -24q-28 -148 -53 -403t-25 -484q0 -126 9.5 -228.5t29.5 -187t57 -131.5t87 -47q53 0 92 35t62.5 93t37 147t18.5 181.5t5 213.5q0 104 -5.5 325.5t-5.5 329.5v143q11 15 41 15q39 0 39 -23l4 -411q0 -44 2 -144.5t2 -163.5 q0 -108 -3.5 -195t-13 -185.5t-28.5 -171.5t-48 -134.5t-74 -94t-103 -32.5q-21 0 -33 2q-252 0 -252 654zM201 1919q0 14 16 25.5t31 11.5q10 0 14 -4l209 -154q3 -5 6 -22q0 -12 -15.5 -20.5t-31.5 -8.5z" />
<glyph unicode="&#xfa;" horiz-adv-x="677" d="M61 670q0 392 80 907q2 14 35 14q43 0 43 -24q-28 -148 -53 -403t-25 -484q0 -126 9.5 -228.5t29.5 -187t57 -131.5t87 -47q53 0 92 35t62.5 93t37 147t18.5 181.5t5 213.5q0 104 -5.5 325.5t-5.5 329.5v143q11 15 41 15q39 0 39 -23l4 -411q0 -44 2 -144.5t2 -163.5 q0 -108 -3.5 -195t-13 -185.5t-28.5 -171.5t-48 -134.5t-74 -94t-103 -32.5q-21 0 -33 2q-252 0 -252 654zM201 1776q3 17 6 22l209 154q4 4 14 4q15 0 31 -11.5t16 -25.5l-229 -172q-16 0 -31.5 8.5t-15.5 20.5z" />
<glyph unicode="&#xfb;" horiz-adv-x="677" d="M61 670q0 392 80 907q2 14 35 14q43 0 43 -24q-28 -148 -53 -403t-25 -484q0 -126 9.5 -228.5t29.5 -187t57 -131.5t87 -47q53 0 92 35t62.5 93t37 147t18.5 181.5t5 213.5q0 104 -5.5 325.5t-5.5 329.5v143q11 15 41 15q39 0 39 -23l4 -411q0 -44 2 -144.5t2 -163.5 q0 -108 -3.5 -195t-13 -185.5t-28.5 -171.5t-48 -134.5t-74 -94t-103 -32.5q-21 0 -33 2q-252 0 -252 654zM182 1726q0 1 1 3.5t1 3.5q21 46 91 130.5t108 84.5l18 -2q10 -4 24.5 -22t30.5 -42.5t19 -28.5l100 -133l3 -10q0 -24 -31.5 -28t-40.5 16l-41 59q-58 79 -86 111 q-7 0 -35 -35.5t-29 -36.5l-61 -88q-10 -10 -27 -10q-45 0 -45 28z" />
<glyph unicode="&#xfc;" horiz-adv-x="677" d="M61 670q0 392 80 907q2 14 35 14q43 0 43 -24q-28 -148 -53 -403t-25 -484q0 -126 9.5 -228.5t29.5 -187t57 -131.5t87 -47q53 0 92 35t62.5 93t37 147t18.5 181.5t5 213.5q0 104 -5.5 325.5t-5.5 329.5v143q11 15 41 15q39 0 39 -23l4 -411q0 -44 2 -144.5t2 -163.5 q0 -108 -3.5 -195t-13 -185.5t-28.5 -171.5t-48 -134.5t-74 -94t-103 -32.5q-21 0 -33 2q-252 0 -252 654zM156 1798q0 57 53 57q47 0 47 -57q0 -49 -39 -49q-24 0 -42.5 11.5t-18.5 37.5zM422 1817q0 32 11.5 43.5t37.5 11.5q18 0 34.5 -12t16.5 -41q0 -25 -16 -37.5 t-33 -12.5q-51 0 -51 48z" />
<glyph unicode="&#xfd;" horiz-adv-x="724" d="M61 1577q0 33 41 33q19 0 27 -4q1 0 10 -9l226 -684l227 719q5 13 35 13q37 0 37 -27q0 -12 -11.5 -37.5t-11.5 -26.5l-256 -759l-25 -729v-56q0 -13 -18.5 -20.5t-32.5 -7.5q-24 0 -24 24l32 813q0 23 -4 35q-60 183 -109.5 326t-74.5 210.5t-42 112t-21.5 57t-4.5 17.5 zM223 1776q3 17 6 22l209 154q4 4 15 4q15 0 31 -11.5t16 -25.5l-230 -172q-16 0 -31.5 8.5t-15.5 20.5z" />
<glyph unicode="&#xff;" horiz-adv-x="724" d="M61 1577q0 33 41 33q19 0 27 -4q1 0 10 -9l226 -684l227 719q5 13 35 13q37 0 37 -27q0 -12 -11.5 -37.5t-11.5 -26.5l-256 -759l-25 -729v-56q0 -13 -18.5 -20.5t-32.5 -7.5q-24 0 -24 24l32 813q0 23 -4 35q-60 183 -109.5 326t-74.5 210.5t-42 112t-21.5 57t-4.5 17.5 zM178 1798q0 57 53 57q48 0 48 -57q0 -49 -39 -49q-24 0 -43 11.5t-19 37.5zM444 1817q0 32 12 43.5t38 11.5q18 0 34.5 -12t16.5 -41q0 -25 -16 -37.5t-33 -12.5q-52 0 -52 48z" />
<glyph unicode="&#x152;" horiz-adv-x="1079" d="M61 780v54q9 189 34 339.5t85 290.5q31 73 99 124.5t147 62.5q94 28 375 28h24q23 -8 23 -28q0 -9 -12 -20t-21 -11l-287 -18q-6 -5 -8 -5v-12q0 -17 4 -52t4 -52l39 -686q0 -27 11 -27q25 0 68 8t65 8h28q13 -6 13 -20q0 -24 -43 -34t-86 -15.5t-43 -16.5l49 -608 q0 -22 10 -22q12 0 151 26.5t185 26.5h8q35 0 35 -25v-10q-2 -3 -10 -12.5t-11 -10.5q-162 -15 -280 -30t-163 -23.5t-76 -14t-50 -5.5h-10q-67 0 -121.5 33.5t-91 86.5t-64 126.5t-42.5 145t-24 152t-11.5 137t-2.5 109.5zM147 760q0 -70 6.5 -153t26 -186.5t48.5 -185.5 t79.5 -138t114.5 -56q58 0 131 49l-111 1489q0 12 -26 16q-51 -13 -93 -58t-69 -101.5t-47.5 -130t-30.5 -129.5t-16 -113q-13 -149 -13 -197v-106z" />
<glyph unicode="&#x153;" horiz-adv-x="1073" d="M61 786q0 54 2 106.5t7 128t16.5 142t28 139.5t43.5 131t61.5 105.5t84 73.5t108.5 26q69 0 208.5 11.5t210.5 11.5q10 0 23.5 -8.5t13.5 -18.5q0 -12 -6 -17.5t-20 -10.5l-262 -27q-35 -4 -35 -23q0 -15 3 -59.5t8.5 -178t10.5 -339.5q0 -6 13 -6q26 0 74 11t73 11 q55 0 55 -30q0 -27 -14 -27q-35 0 -93.5 -14.5t-94.5 -14.5h-2q-7 -5 -7 -20l58 -834l10 -8q25 8 142.5 17.5t138.5 13.5q2 0 23 4t24 4h10q11 0 23 -10.5t12 -22.5q0 -23 -41 -28q-400 -47 -430 -48q-37 12 -37 29q0 16 20 28l21 13v31l-4 53q-65 -78 -158 -78 q-62 0 -113 30t-83.5 76t-57 114t-37.5 131t-20 141t-9 130t-2 111zM135 799q0 -47 1 -74t3.5 -86.5t7 -99t14 -98t22 -98t32 -83.5t44.5 -71t59 -44.5t75 -17.5q91 0 142 141l-66 1243l-8 56q-24 6 -45 6q-55 0 -100 -35t-73.5 -88t-49.5 -127.5t-32 -141t-17 -141.5 t-7.5 -116.5t-1.5 -77.5v-47z" />
<glyph unicode="&#x178;" d="M61 1565v28q0 13 31 13q26 0 35 -10.5t14 -39.5l23 -120l139 -559l221 659l17 57q15 49 43 49q14 0 28.5 -7t14.5 -19t-8 -29.5t-9 -21.5q-5 -22 -12 -44.5t-25.5 -76.5t-44.5 -126.5t-79 -228.5t-117 -348l-2 -100q0 -11 -2 -79t-4 -193.5t-2 -276.5v-74q4 -4 4 -22 q0 -11 -18 -17t-32 -6q-15 0 -21.5 7t-7.5 14.5t-1 25.5l14 719v9l-168 682q-7 22 -19 75t-12 60zM160 1829q0 57 53 57q47 0 47 -57q0 -49 -39 -49q-24 0 -42.5 11.5t-18.5 37.5zM426 1847q0 32 11.5 44t37.5 12q18 0 34.5 -12.5t16.5 -41.5q0 -25 -16 -37t-33 -12 q-24 0 -37.5 9.5t-13.5 37.5z" />
<glyph unicode="&#x2000;" horiz-adv-x="1016" />
<glyph unicode="&#x2001;" horiz-adv-x="2032" />
<glyph unicode="&#x2002;" horiz-adv-x="1016" />
<glyph unicode="&#x2003;" horiz-adv-x="2032" />
<glyph unicode="&#x2004;" horiz-adv-x="677" />
<glyph unicode="&#x2005;" horiz-adv-x="508" />
<glyph unicode="&#x2006;" horiz-adv-x="338" />
<glyph unicode="&#x2007;" horiz-adv-x="338" />
<glyph unicode="&#x2008;" horiz-adv-x="254" />
<glyph unicode="&#x2009;" horiz-adv-x="406" />
<glyph unicode="&#x200a;" horiz-adv-x="112" />
<glyph unicode="&#x2010;" horiz-adv-x="737" d="M61 823q0 21 11.5 28t36.5 7h26q369 0 500 -8q17 -3 29 -17.5t12 -27.5q0 -10 -8.5 -17.5t-22.5 -7.5q-12 0 -18 2q-102 0 -232.5 -1t-161.5 -1q-104 0 -138 8t-34 35z" />
<glyph unicode="&#x2011;" horiz-adv-x="737" d="M61 823q0 21 11.5 28t36.5 7h26q369 0 500 -8q17 -3 29 -17.5t12 -27.5q0 -10 -8.5 -17.5t-22.5 -7.5q-12 0 -18 2q-102 0 -232.5 -1t-161.5 -1q-104 0 -138 8t-34 35z" />
<glyph unicode="&#x2012;" horiz-adv-x="737" d="M61 823q0 21 11.5 28t36.5 7h26q369 0 500 -8q17 -3 29 -17.5t12 -27.5q0 -10 -8.5 -17.5t-22.5 -7.5q-12 0 -18 2q-102 0 -232.5 -1t-161.5 -1q-104 0 -138 8t-34 35z" />
<glyph unicode="&#x2013;" horiz-adv-x="1146" d="M61 823q0 21 19 28t61 7h43q615 0 833 -8q28 -3 48 -17.5t20 -27.5q0 -10 -14 -17.5t-38 -7.5q-20 0 -30 2q-169 0 -386.5 -1t-269.5 -1q-173 0 -229.5 8t-56.5 35z" />
<glyph unicode="&#x2014;" horiz-adv-x="2170" d="M61 823q0 21 38.5 28t121.5 7h86q1229 0 1665 -8q57 -3 97 -17.5t40 -27.5q0 -10 -28.5 -17.5t-74.5 -7.5q-40 0 -60 2q-340 0 -774.5 -1t-537.5 -1q-347 0 -460 8t-113 35z" />
<glyph unicode="&#x2018;" horiz-adv-x="202" d="M61 1376v27q0 49 5.5 147.5t5.5 147.5q3 18 11.5 24.5t27.5 6.5q24 0 24 -19l6 -334q0 -9 -16 -14.5t-29 -5.5q-31 0 -35 20z" />
<glyph unicode="&#x2019;" horiz-adv-x="202" d="M61 1708q0 9 16.5 15t28.5 6q30 0 35 -21v-27q0 -49 -5 -147.5t-5 -147.5q-3 -18 -11 -24t-28 -6q-24 0 -24 18z" />
<glyph unicode="&#x201a;" horiz-adv-x="202" d="M61 274q0 9 16.5 15t28.5 6q30 0 35 -21v-26q0 -49 -5 -147.5t-5 -147.5q-3 -18 -11.5 -24.5t-27.5 -6.5q-24 0 -24 19z" />
<glyph unicode="&#x201c;" horiz-adv-x="370" d="M61 1376v27q0 49 5.5 147.5t5.5 147.5q3 18 11.5 24.5t27.5 6.5q24 0 24 -19l6 -334q0 -9 -16 -14.5t-29 -5.5q-31 0 -35 20zM229 1376v27q0 49 5.5 147.5t5.5 147.5q3 18 11.5 24.5t27.5 6.5q24 0 24 -19l6 -334q0 -9 -16 -14.5t-29 -5.5q-31 0 -35 20z" />
<glyph unicode="&#x201d;" horiz-adv-x="370" d="M61 1708q0 9 16.5 15t28.5 6q30 0 35 -21v-27q0 -49 -5 -147.5t-5 -147.5q-3 -18 -11 -24t-28 -6q-24 0 -24 18zM229 1708q0 9 16.5 15t28.5 6q30 0 35 -21v-27q0 -49 -5 -147.5t-5 -147.5q-3 -18 -11 -24t-28 -6q-24 0 -24 18z" />
<glyph unicode="&#x201e;" horiz-adv-x="370" d="M61 266q0 9 16.5 15t28.5 6q30 0 35 -21v-26q0 -49 -5 -147.5t-5 -147.5q-3 -18 -11.5 -24.5t-27.5 -6.5q-24 0 -24 18zM229 266q0 9 16.5 15t28.5 6q30 0 35 -21v-26q0 -49 -5 -147.5t-5 -147.5q-3 -18 -11.5 -24.5t-27.5 -6.5q-24 0 -24 18z" />
<glyph unicode="&#x202f;" horiz-adv-x="406" />
<glyph unicode="&#x2039;" horiz-adv-x="679" d="M61 788q43 51 134.5 165.5t164 200.5t144.5 159l10 9q11 10 15 13t12.5 7t15.5 4q16 0 30.5 -7t14.5 -22q0 -11 -8 -19q-98 -90 -186.5 -195.5t-202.5 -256.5l-35 -45q89 -85 225 -213q198 -187 217 -213q9 -13 2 -13h-4q0 -22 -61 -22z" />
<glyph unicode="&#x203a;" horiz-adv-x="679" d="M66 372q15 23 200 198q158 149 244 231l-35 45q-114 151 -202.5 256.5t-186.5 195.5q-8 8 -8 19q0 15 14.5 22t30.5 7q7 0 15.5 -4t12.5 -7t15 -13l10 -9q72 -73 144.5 -159.5t163 -199.5t134.5 -166l-487 -448q-61 0 -61 22q-12 -2 -4 10z" />
<glyph unicode="&#x205f;" horiz-adv-x="508" />
<glyph unicode="&#x20ac;" horiz-adv-x="776" d="M61 819q0 37 13 37q32 -4 53 -4q0 47 4 141q-70 7 -70 27q0 9 4 23t11 14q40 -4 61 -4q11 116 34 212.5t60 175.5t94.5 123t129.5 44q79 0 132.5 -55.5t80.5 -137.5q0 -13 -12.5 -24t-26.5 -11q-35 0 -43 17q-2 8 -18 48t-17 44q-9 23 -38 44t-54 21q-208 0 -252 -503 q66 -2 196 -2q131 0 197 -2l39 -3q20 -3 31.5 -17t11.5 -34q0 -9 -14 -12q-125 8 -383 8h-84q-4 -94 -4 -139q53 -2 161 -2q109 0 164 -2l35 -2q17 -3 27 -17t10 -34q0 -9 -12 -13q-109 8 -330 8h-55v-38q11 -656 295 -656q35 0 60.5 28.5t39 68.5t21.5 96t10 98t4 88v8 q0 30 8.5 46t36.5 16q43 0 43 -29v-8q-7 -136 -29.5 -233.5t-57.5 -151t-75.5 -77.5t-89.5 -24q-66 0 -119 30.5t-87.5 77.5t-59.5 117.5t-38 135.5t-21 148.5t-9.5 139.5t-1.5 124q-66 5 -66 26z" />
<glyph unicode="&#x25fc;" horiz-adv-x="1617" d="M0 0v1618h1618v-1618h-1618z" />
</font>
</defs>
</svg>
